<svg xmlns="http://www.w3.org/2000/svg" width="1255.28" height="461.313" viewBox="0 0 1255.28 461.313">
  <g id="Grupo_145851" data-name="Grupo 145851" transform="translate(-179 -93.605)">
    <path id="Trazado_139195" data-name="Trazado 139195" d="M284.615,400.548a53.545,53.545,0,0,0-2.671-6.6c-8.455-17.354-24.56-26.9-41.986-33.526-18-6.842-40.118-10.066-43.5-32.712-1.363-9.148,1.42-18.3,1.035-27.456-.268-6.388-2.52-13.169-7.827-16.737-5.051-3.4-11.088-3.924-16.4-.677-4.3,2.632-7.3,6.95-9.6,11.43-8.709,16.888-8.781,39.808-2.185,57.452,10.687,28.583,43.158,40.933,54.12,69.293,5.764,14.917,10.089,29.89,25.78,37.126a30.536,30.536,0,0,0,27.06-.47C288.184,447.281,291.19,420.379,284.615,400.548Z" transform="translate(1146.525 -179.67)" fill="#c7d851"/>
    <path id="Trazado_139196" data-name="Trazado 139196" d="M232.849,351.993a31.856,31.856,0,0,0-1.589-3.925c-5.031-10.325-14.612-16.007-24.98-19.947-10.712-4.071-23.869-5.989-25.878-19.462-.811-5.443.845-10.887.616-16.335-.159-3.8-1.5-7.835-4.657-9.958a8.773,8.773,0,0,0-9.755-.4,16.6,16.6,0,0,0-5.715,6.8c-5.182,10.048-5.225,23.684-1.3,34.182,6.358,17.006,25.677,24.354,32.2,41.227,3.43,8.875,6,17.784,15.338,22.089a18.168,18.168,0,0,0,16.1-.28C234.972,379.8,236.76,363.792,232.849,351.993Z" transform="translate(22.192 -187.065)" fill="#c7d851"/>
    <path id="Trazado_139194" data-name="Trazado 139194" d="M513.533,370.759c-.007.305-.014.595-.02.864a66.192,66.192,0,0,1-25.24,50.181,64.227,64.227,0,0,1-8.008,5.319,66.484,66.484,0,0,1-25.5,8.211c-9.134.971-19.43.328-27.077-5.314-3.471-2.56-6.04-6.141-6.253-10.568-.542-11.27,12.051-16.033,21.173-17.279,9.493-1.3,18.627-1.587,27.5-5.665a52.971,52.971,0,0,0,16.27-11.654c5-5.3,8.075-11.4,11.212-17.89,1.831-3.782,4.038-11.163,9.332-11.04C513.617,356.08,513.641,365.7,513.533,370.759Z" transform="translate(807.911 119.211)" fill="#c7d851"/>
    <path id="Trazado_139193" data-name="Trazado 139193" d="M169.25,31.288a5.339,5.339,0,0,0-.393-.481c-4.01-4.362-11.945-.987-16.316.9-8.426,3.645-15.87,5.382-25.108,5.107-12.191-.363-24.135-1.062-35.349,4.617A40.3,40.3,0,0,0,69.98,77.69c.116,9.587,6.047,20.46,17.179,15.23,5.317-2.5,8.966-7.863,10.833-13.274,2.248-6.518,2.313-13.663,7.127-19.055,9-10.08,24.066-8.744,36.248-7.864,8.194.592,17.933-.993,24.059-7.063C168.735,42.387,172.465,35.73,169.25,31.288Z" transform="translate(888.334 72.032)" fill="#f0ad65"/>
  </g>
</svg>
