<svg xmlns="http://www.w3.org/2000/svg" width="77.909" height="107.333" viewBox="0 0 77.909 107.333">
  <path id="Trazado_139196" data-name="Trazado 139196" d="M232.849,351.993a31.856,31.856,0,0,0-1.589-3.925c-5.031-10.325-14.612-16.007-24.98-19.947-10.712-4.071-23.869-5.989-25.878-19.462-.811-5.443.845-10.887.616-16.335-.159-3.8-1.5-7.835-4.657-9.958a8.773,8.773,0,0,0-9.755-.4,16.6,16.6,0,0,0-5.715,6.8c-5.182,10.048-5.225,23.684-1.3,34.182,6.358,17.006,25.677,24.354,32.2,41.227,3.43,8.875,6,17.784,15.338,22.089a18.168,18.168,0,0,0,16.1-.28C234.972,379.8,236.76,363.792,232.849,351.993Z" transform="translate(-156.808 -280.67)" fill="#c7d851"/>
</svg>
