<svg xmlns="http://www.w3.org/2000/svg" width="92.134" height="79.784" viewBox="0 0 92.134 79.784">
  <path id="Trazado_139194" data-name="Trazado 139194" d="M513.533,370.759c-.007.305-.014.595-.02.864a66.192,66.192,0,0,1-25.24,50.181,64.227,64.227,0,0,1-8.008,5.319,66.484,66.484,0,0,1-25.5,8.211c-9.134.971-19.43.328-27.077-5.314-3.471-2.56-6.04-6.141-6.253-10.568-.542-11.27,12.051-16.033,21.173-17.279,9.493-1.3,18.627-1.587,27.5-5.665a52.971,52.971,0,0,0,16.27-11.654c5-5.3,8.075-11.4,11.212-17.89,1.831-3.782,4.038-11.163,9.332-11.04C513.617,356.08,513.641,365.7,513.533,370.759Z" transform="translate(-421.422 -355.923)" fill="#c7d851"/>
</svg>
