<svg xmlns="http://www.w3.org/2000/svg" width="100.504" height="65.606" viewBox="0 0 100.504 65.606">
  <path id="Trazado_139193" data-name="Trazado 139193" d="M169.25,31.288a5.339,5.339,0,0,0-.393-.481c-4.01-4.362-11.945-.987-16.316.9-8.426,3.645-15.87,5.382-25.108,5.107-12.191-.363-24.135-1.062-35.349,4.617A40.3,40.3,0,0,0,69.98,77.69c.116,9.587,6.047,20.46,17.179,15.23,5.317-2.5,8.966-7.863,10.833-13.274,2.248-6.518,2.313-13.663,7.127-19.055,9-10.08,24.066-8.744,36.248-7.864,8.194.592,17.933-.993,24.059-7.063C168.735,42.387,172.465,35.73,169.25,31.288Z" transform="translate(-69.977 -28.674)" fill="#f0ad65"/>
</svg>
