<svg xmlns="http://www.w3.org/2000/svg" width="130.947" height="180.402" viewBox="0 0 130.947 180.402">
  <path id="Trazado_139195" data-name="Trazado 139195" d="M284.615,400.548a53.545,53.545,0,0,0-2.671-6.6c-8.455-17.354-24.56-26.9-41.986-33.526-18-6.842-40.118-10.066-43.5-32.712-1.363-9.148,1.42-18.3,1.035-27.456-.268-6.388-2.52-13.169-7.827-16.737-5.051-3.4-11.088-3.924-16.4-.677-4.3,2.632-7.3,6.95-9.6,11.43-8.709,16.888-8.781,39.808-2.185,57.452,10.687,28.583,43.158,40.933,54.12,69.293,5.764,14.917,10.089,29.89,25.78,37.126a30.536,30.536,0,0,0,27.06-.47C288.184,447.281,291.19,420.379,284.615,400.548Z" transform="translate(-156.808 -280.67)" fill="#c7d851"/>
</svg>
