<svg xmlns="http://www.w3.org/2000/svg" width="146.57" height="124.176" viewBox="0 0 146.57 124.176">
  <g id="Grupo_145860" data-name="Grupo 145860" transform="translate(10545.718 8184)">
    <g id="Grupo_145859" data-name="Grupo 145859">
      <path id="Trazado_151511" data-name="Trazado 151511" d="M90.205,19V6.2h4.482a5.886,5.886,0,0,1,3.533.892,3.05,3.05,0,0,1,1.2,2.615,2.891,2.891,0,0,1-.483,1.657,2.792,2.792,0,0,1-1.345,1.05,2.7,2.7,0,0,1,1.551.993,2.936,2.936,0,0,1,.567,1.828,3.377,3.377,0,0,1-1.178,2.795A5.3,5.3,0,0,1,95.18,19Zm2.637-5.572v3.454H95.1a2.18,2.18,0,0,0,1.455-.444,1.522,1.522,0,0,0,.523-1.226,1.607,1.607,0,0,0-1.819-1.784Zm0-1.863h1.951q2-.035,2-1.591a1.47,1.47,0,0,0-.505-1.252,2.658,2.658,0,0,0-1.6-.382H92.842ZM105.9,19.176a4.668,4.668,0,0,1-3.406-1.283,4.561,4.561,0,0,1-1.314-3.419v-.246a5.745,5.745,0,0,1,.554-2.562,4.064,4.064,0,0,1,1.569-1.74,4.4,4.4,0,0,1,2.316-.611,3.947,3.947,0,0,1,3.072,1.23,5,5,0,0,1,1.121,3.489v1.037h-6.056a2.36,2.36,0,0,0,.743,1.494,2.245,2.245,0,0,0,1.569.563,2.742,2.742,0,0,0,2.294-1.063l1.248,1.4a3.813,3.813,0,0,1-1.547,1.261A5.075,5.075,0,0,1,105.9,19.176Zm-.29-7.813a1.587,1.587,0,0,0-1.226.512,2.651,2.651,0,0,0-.6,1.466h3.533v-.2a1.891,1.891,0,0,0-.457-1.311A1.638,1.638,0,0,0,105.612,11.362ZM113.936,19h-2.549V9.49h2.549Zm-2.7-11.971a1.251,1.251,0,0,1,.382-.94,1.648,1.648,0,0,1,2.079,0,1.244,1.244,0,0,1,.387.94,1.247,1.247,0,0,1-.391.949,1.629,1.629,0,0,1-2.065,0A1.247,1.247,0,0,1,111.237,7.029ZM116.194,19V6.2h3.938a5.98,5.98,0,0,1,3.019.76,5.3,5.3,0,0,1,2.079,2.162,6.669,6.669,0,0,1,.747,3.186V12.9a6.688,6.688,0,0,1-.734,3.173,5.256,5.256,0,0,1-2.07,2.153,6.025,6.025,0,0,1-3.015.773Zm2.637-10.661v8.543h1.274a2.863,2.863,0,0,0,2.364-1.011,4.567,4.567,0,0,0,.835-2.892V12.3a4.64,4.64,0,0,0-.809-2.958,2.854,2.854,0,0,0-2.364-1.006Zm8.5,5.818a5.64,5.64,0,0,1,.545-2.522,3.989,3.989,0,0,1,1.569-1.714,4.577,4.577,0,0,1,2.377-.606,4.33,4.33,0,0,1,3.142,1.178,4.727,4.727,0,0,1,1.358,3.2l.018.65a4.97,4.97,0,0,1-1.222,3.511,4.735,4.735,0,0,1-6.561,0,5.058,5.058,0,0,1-1.226-3.586Zm2.54.18a3.555,3.555,0,0,0,.51,2.073,1.831,1.831,0,0,0,2.9.009,3.89,3.89,0,0,0,.519-2.267,3.519,3.519,0,0,0-.519-2.06,1.686,1.686,0,0,0-1.459-.731,1.658,1.658,0,0,0-1.441.726A3.955,3.955,0,0,0,129.87,14.338Zm13.729,3.7a3.185,3.185,0,0,1-2.6,1.143,3,3,0,0,1-2.333-.879,3.752,3.752,0,0,1-.822-2.575V9.49h2.54v6.151q0,1.487,1.354,1.487a1.834,1.834,0,0,0,1.775-.9V9.49h2.549V19h-2.391Z" transform="translate(-10546 -8079)" fill="#12263f"/>
      <g id="Grupo_91669" data-name="Grupo 91669" transform="translate(-10545.718 -8184)">
        <rect id="Rectángulo_35487" data-name="Rectángulo 35487" width="146.57" height="85.5" fill="#cb1d23"/>
        <path id="Trazado_144381" data-name="Trazado 144381" d="M15.368,32.075l2.755-8.533-7.239-5.289,8.966-.017,2.793-8.519,2.787,8.522,8.967.025-7.245,5.283L29.9,32.08l-7.263-5.256Z" transform="translate(-1.266 -1.13)" fill="#f7de29"/>
        <path id="Trazado_144382" data-name="Trazado 144382" d="M44.2,40.072l3.025,1.214,2.1-2.492-.223,3.25,3.021,1.228-3.161.8-.237,3.25-1.733-2.759-3.164.777,2.089-2.5Z" transform="translate(-5.096 -4.511)" fill="#f7de29"/>
        <path id="Trazado_144383" data-name="Trazado 144383" d="M61.668,20.876l-3.212-.559-1.538,2.874-.46-3.226-3.21-.578,2.927-1.433-.445-3.231L58,17.064l2.936-1.421-1.527,2.881Z" transform="translate(-6.192 -1.712)" fill="#f7de29"/>
        <path id="Trazado_144384" data-name="Trazado 144384" d="M54.844,37.147l1-3.1-2.633-1.924,3.261-.007,1.015-3.1,1.015,3.1,3.26.007-2.634,1.921,1,3.1-2.641-1.91Z" transform="translate(-6.187 -3.374)" fill="#f7de29"/>
        <path id="Trazado_144385" data-name="Trazado 144385" d="M44.339,6.017,47.3,7.389l2.231-2.381-.391,3.238,2.951,1.387-3.2.627L48.481,13.5,46.9,10.647l-3.2.615,2.218-2.389Z" transform="translate(-5.081 -0.582)" fill="#f7de29"/>
      </g>
    </g>
  </g>
</svg>
