<svg xmlns="http://www.w3.org/2000/svg" xmlns:xlink="http://www.w3.org/1999/xlink" width="146.564" height="126.285" viewBox="0 0 146.564 126.285">
  <defs>
    <clipPath id="clip-path">
      <rect id="Rect치ngulo_35485" data-name="Rect치ngulo 35485" width="146.564" height="85.5" fill="none"/>
    </clipPath>
  </defs>
  <g id="Grupo_145864" data-name="Grupo 145864" transform="translate(10722.712 7392)">
    <path id="Trazado_151513" data-name="Trazado 151513" d="M118.171,12.892a7.71,7.71,0,0,1-.58,3.116,5.349,5.349,0,0,1-1.608,2.123l2.127,1.67-1.679,1.485L113.706,19.1a5.767,5.767,0,0,1-.967.079,5.324,5.324,0,0,1-2.839-.765,5.08,5.08,0,0,1-1.934-2.184,7.5,7.5,0,0,1-.694-3.265v-.633A7.685,7.685,0,0,1,107.954,9,5.072,5.072,0,0,1,109.878,6.8a5.64,5.64,0,0,1,5.687,0A5.072,5.072,0,0,1,117.49,9a7.663,7.663,0,0,1,.681,3.318Zm-2.672-.58a5.385,5.385,0,0,0-.721-3.059,2.546,2.546,0,0,0-4.1-.013,5.324,5.324,0,0,0-.729,3.028v.624a5.453,5.453,0,0,0,.721,3.041,2.524,2.524,0,0,0,4.113.04,5.421,5.421,0,0,0,.721-3.037Zm7.4,4.57h6.451V19H119.6V17.453l6.328-9.114h-6.319V6.2h9.6V7.715Zm14.748-1.239a1.353,1.353,0,0,0-.527-1.147,6.917,6.917,0,0,0-1.9-.844,13.458,13.458,0,0,1-2.171-.875,3.547,3.547,0,0,1-2.18-3.173,3.09,3.09,0,0,1,.584-1.85,3.812,3.812,0,0,1,1.679-1.27,6.318,6.318,0,0,1,2.457-.457,5.751,5.751,0,0,1,2.443.5,3.891,3.891,0,0,1,1.666,1.4,3.668,3.668,0,0,1,.593,2.057h-2.637a1.726,1.726,0,0,0-.554-1.367,2.276,2.276,0,0,0-1.556-.488,2.432,2.432,0,0,0-1.5.409,1.289,1.289,0,0,0-.536,1.077,1.235,1.235,0,0,0,.628,1.046,7.1,7.1,0,0,0,1.85.791,7.994,7.994,0,0,1,3.278,1.679,3.343,3.343,0,0,1,1.028,2.5,3.08,3.08,0,0,1-1.257,2.606,5.5,5.5,0,0,1-3.384.945,6.534,6.534,0,0,1-2.689-.541,4.256,4.256,0,0,1-1.85-1.481,3.793,3.793,0,0,1-.637-2.18h2.646q0,2.118,2.531,2.118a2.462,2.462,0,0,0,1.468-.382A1.244,1.244,0,0,0,137.647,15.643Zm11.065,0a1.353,1.353,0,0,0-.527-1.147,6.917,6.917,0,0,0-1.9-.844,13.458,13.458,0,0,1-2.171-.875,3.547,3.547,0,0,1-2.18-3.173,3.09,3.09,0,0,1,.584-1.85,3.812,3.812,0,0,1,1.679-1.27,6.318,6.318,0,0,1,2.457-.457,5.751,5.751,0,0,1,2.443.5,3.891,3.891,0,0,1,1.666,1.4,3.668,3.668,0,0,1,.593,2.057h-2.637a1.726,1.726,0,0,0-.554-1.367,2.276,2.276,0,0,0-1.556-.488,2.432,2.432,0,0,0-1.5.409,1.289,1.289,0,0,0-.536,1.077,1.235,1.235,0,0,0,.628,1.046,7.1,7.1,0,0,0,1.85.791,7.994,7.994,0,0,1,3.278,1.679,3.343,3.343,0,0,1,1.028,2.5,3.08,3.08,0,0,1-1.257,2.606,5.5,5.5,0,0,1-3.384.945,6.534,6.534,0,0,1-2.689-.541,4.256,4.256,0,0,1-1.85-1.481,3.793,3.793,0,0,1-.637-2.18h2.646q0,2.118,2.531,2.118a2.462,2.462,0,0,0,1.468-.382A1.244,1.244,0,0,0,148.713,15.643Z" transform="translate(-10728 -7287)" fill="#12263f"/>
    <g id="Grupo_91665" data-name="Grupo 91665" transform="translate(-10722.712 -7392)">
      <rect id="Rect치ngulo_35484" data-name="Rect치ngulo 35484" width="146.564" height="85.5" transform="translate(0 0)" fill="#f9f9f9"/>
      <g id="Grupo_91666" data-name="Grupo 91666" transform="translate(0 0)">
        <g id="Grupo_91665-2" data-name="Grupo 91665" clip-path="url(#clip-path)">
          <path id="Trazado_143238" data-name="Trazado 143238" d="M79.553,19.352A25.649,25.649,0,1,1,53.9,45,25.645,25.645,0,0,1,79.553,19.352" transform="translate(-6.269 -2.251)" fill="#ad0018"/>
        </g>
      </g>
    </g>
  </g>
</svg>
