<svg xmlns="http://www.w3.org/2000/svg" xmlns:xlink="http://www.w3.org/1999/xlink" width="146.566" height="123.589" viewBox="0 0 146.566 123.589">
  <defs>
    <clipPath id="clip-path">
      <rect id="Rectángulo_35482" data-name="Rectángulo 35482" width="146.566" height="84.327" fill="none"/>
    </clipPath>
  </defs>
  <g id="Grupo_145862" data-name="Grupo 145862" transform="translate(10545.432 7743.413)">
    <path id="Trazado_151512" data-name="Trazado 151512" d="M105.612,19h-2.637l-5.133-8.42V19H95.206V6.2h2.637l5.142,8.438V6.2h2.628Zm9.527-2.637h-4.623L109.638,19h-2.8L111.6,6.2h2.443l4.79,12.8h-2.8Zm-3.911-2.136h3.2l-1.608-4.79Zm12.85,1.6,2.9-9.624h2.936L125.458,19h-2.751L118.269,6.2H121.2ZM133.922,19h-2.637V6.2h2.637Zm12.489-4.263a4.528,4.528,0,0,1-1.525,3.252,5.355,5.355,0,0,1-3.625,1.187,4.816,4.816,0,0,1-3.872-1.657,6.793,6.793,0,0,1-1.411-4.548v-.782a7.671,7.671,0,0,1,.65-3.252,4.874,4.874,0,0,1,1.859-2.158,5.809,5.809,0,0,1,6.376.435,4.866,4.866,0,0,1,1.564,3.331h-2.637a2.673,2.673,0,0,0-.69-1.8,2.555,2.555,0,0,0-1.806-.558,2.24,2.24,0,0,0-1.973.945,5.3,5.3,0,0,0-.672,2.931v.967a5.667,5.667,0,0,0,.628,3.032,2.2,2.2,0,0,0,1.982.958,2.6,2.6,0,0,0,1.824-.558,2.521,2.521,0,0,0,.69-1.727Z" transform="translate(-10545.718 -7639)" fill="#12263f"/>
    <g id="Grupo_91661" data-name="Grupo 91661" transform="translate(-10545.432 -7743.413)">
      <rect id="Rectángulo_35479" data-name="Rectángulo 35479" width="146.566" height="84.327" transform="translate(0 0)" fill="#fff"/>
      <rect id="Rectángulo_35480" data-name="Rectángulo 35480" width="146.566" height="28.109" transform="translate(0 0)" fill="#f93"/>
      <rect id="Rectángulo_35481" data-name="Rectángulo 35481" width="146.566" height="28.109" transform="translate(0 56.218)" fill="#128807"/>
      <g id="Grupo_91662" data-name="Grupo 91662" transform="translate(0 0)">
        <g id="Grupo_91661-2" data-name="Grupo 91661" clip-path="url(#clip-path)">
          <path id="Trazado_142890" data-name="Trazado 142890" d="M82.586,37.247a9.669,9.669,0,1,0,9.669,9.669,9.668,9.668,0,0,0-9.669-9.669m8.979,10.267a.447.447,0,0,0-.1.879c-.036.22-.081.437-.133.652l-4.517-1.44-3.054-.516a1.192,1.192,0,0,0,.016-.16l3.083.325,4.727-.332c0,.2-.008.4-.022.591m-.434,2.233a.231.231,0,0,0-.026-.009.448.448,0,0,0-.3.84c-.094.21-.194.418-.3.619L86.5,48.655l-2.82-1.271a1.276,1.276,0,0,0,.056-.166l2.912,1.063,4.674.827c-.055.217-.118.43-.188.64m-4.563,5.193a.448.448,0,0,0-.8.4q-.287.109-.584.2L84.123,50.9l-1.109-2.883a1.229,1.229,0,0,0,.145-.07l1.286,2.814,2.7,3.92c-.182.107-.369.209-.559.3a.315.315,0,0,0-.019-.038m-2.351.783a.447.447,0,0,0-.873.16c-.229.019-.461.031-.694.033l.284-4.75-.253-3.081a1.328,1.328,0,0,0,.207-.033l.566,3.039,1.673,4.46a8.874,8.874,0,0,1-.9.215c0-.014-.005-.029-.009-.043m-5.007-.936a.448.448,0,0,0-.5.253c-.162-.078-.322-.162-.48-.25l2.572-4,1.286-2.808a1.264,1.264,0,0,0,.164.06l-1.08,2.9-.862,4.687c-.263-.069-.523-.15-.776-.241a.51.51,0,0,0,.021-.065.447.447,0,0,0-.341-.533m-4.525-4.548a.449.449,0,0,0-.532-.173q-.1-.281-.191-.572l4.621-1.063,2.888-1.114a1.323,1.323,0,0,0,.071.151l-2.81,1.305-3.9,2.72c-.117-.2-.228-.4-.33-.608a.333.333,0,0,0,.05-.025.448.448,0,0,0,.129-.62M73.617,46.18a.418.418,0,0,0,.066,0,.447.447,0,0,0,.05-.886c.034-.188.072-.374.119-.558l4.5,1.437,3.057.516a1.355,1.355,0,0,0-.016.16l-3.086-.325-4.726.332c0-.228.013-.453.031-.676m.462-2.208a.5.5,0,0,0,.065.019.447.447,0,0,0,.269-.847c.086-.187.177-.37.276-.55l3.988,2.53L81.505,46.4a1.226,1.226,0,0,0-.059.164L78.528,45.5l-4.662-.825c.061-.238.134-.471.214-.7m4.578-5.066a.448.448,0,0,0,.783-.426c.183-.068.368-.13.557-.186l1.052,4.59,1.116,2.9a1.282,1.282,0,0,0-.144.068l-1.295-2.831L78.051,39.14q.277-.162.568-.306a.4.4,0,0,0,.038.072m-4.92,9.655a.529.529,0,0,0,.059-.014.447.447,0,0,0-.178-.87c-.021-.25-.034-.5-.034-.757l4.724.3L81.4,46.98a1.2,1.2,0,0,0,.032.211l-3.046.571-4.441,1.672a8.751,8.751,0,0,1-.207-.872m8.551-2.812-.571-3.061-1.655-4.413c.252-.073.508-.137.769-.188a.487.487,0,0,0,.02.082.448.448,0,0,0,.865-.212q.4-.038.8-.041l-.281,4.7.255,3.1a1.211,1.211,0,0,0-.205.033m1.433-7.368a.446.446,0,0,0,.43-.329c.216.038.43.081.641.134L83.33,42.664l-.537,3.063a1.233,1.233,0,0,0-.172-.017l.313-3.1-.347-4.7c.231,0,.46.012.687.029a.446.446,0,0,0,.447.439m2.138.572a.445.445,0,0,0,.5-.21c.191.088.379.181.563.283L84.374,42.99l-1.293,2.826a1.29,1.29,0,0,0-.163-.058L84,42.84l.853-4.637c.231.06.458.131.682.209a.447.447,0,0,0,.319.542m1.921,1.1a.448.448,0,0,0,.54-.077c.209.173.411.357.6.548l-3.543,3.11-2.024,2.361a1.134,1.134,0,0,0-.163-.117l1.788-2.547,2-4.27c.215.12.425.248.629.386a.447.447,0,0,0,.17.607m1.576,1.553a.447.447,0,0,0,.543.063c.134.187.263.378.383.575l-4.2,2.164-2.532,1.8a1.167,1.167,0,0,0-.1-.124l2.418-1.953,3.1-3.558c.129.131.254.266.376.4a.446.446,0,0,0,.009.63m1.128,1.9a.445.445,0,0,0,.513.2c.072.19.14.383.2.579L86.59,45.348,83.7,46.465a1.136,1.136,0,0,0-.075-.149l2.82-1.31,3.874-2.7c.116.194.224.393.325.595h0a.448.448,0,0,0-.154.614m.93,1.639-.02,0a.448.448,0,0,0,.15.877c.026.273.041.55.042.829l-4.723-.3L83.77,46.8a1.19,1.19,0,0,0-.036-.21l3.053-.572,4.428-1.666q.116.393.2.8M76.742,40.072a.491.491,0,0,0,.051.053.447.447,0,0,0,.655-.6c.177-.124.358-.241.544-.352l2.132,4.2,1.783,2.544a1.122,1.122,0,0,0-.136.113L79.8,43.63l-3.586-3.07c.17-.17.348-.332.53-.488m-.577.537,3.141,3.515,2.378,2a1.228,1.228,0,0,0-.117.16l-2.554-1.771-4.292-1.977c.126-.226.259-.446.4-.66a.431.431,0,0,0,.064.039.447.447,0,0,0,.474-.753q.241-.288.5-.556M75.7,52.71a.458.458,0,0,0,.057-.052.448.448,0,0,0-.6-.66c-.1-.147-.2-.3-.291-.451l4.221-2.175,2.52-1.79a1.157,1.157,0,0,0,.1.124L79.3,49.649l-3.124,3.586c-.167-.169-.325-.344-.478-.525m.521.57,3.572-3.135L81.8,47.8a1.2,1.2,0,0,0,.162.12l-1.777,2.531L78.172,54.76c-.253-.142-.5-.3-.736-.463a.407.407,0,0,0,.038-.059.447.447,0,0,0-.744-.488c-.175-.151-.347-.306-.51-.47m5.614,2.6c0-.016,0-.031,0-.047a.447.447,0,0,0-.885-.07c-.2-.037-.4-.078-.588-.126l1.478-4.525.533-3.041a1.272,1.272,0,0,0,.174.017l-.311,3.074.351,4.752h0c-.253,0-.5-.014-.752-.034m6.649-2.17a.359.359,0,0,0-.042-.047.447.447,0,0,0-.66.6c-.188.133-.382.262-.58.38L85.046,50.4l-1.773-2.529a1.33,1.33,0,0,0,.138-.114l1.964,2.389,3.613,3.094c-.162.163-.332.32-.505.471m.548-.516-3.165-3.543L83.5,47.662a1.185,1.185,0,0,0,.115-.162l2.545,1.765,4.316,1.988c-.133.24-.275.475-.428.7A.44.44,0,0,0,90,51.923a.448.448,0,0,0-.491.744c-.153.183-.313.359-.48.53" transform="translate(-9.303 -4.752)" fill="#003d78"/>
        </g>
      </g>
    </g>
  </g>
</svg>
