<svg xmlns="http://www.w3.org/2000/svg" width="228.79" height="151.999" viewBox="0 0 228.79 151.999">
  <g id="Grupo_145856" data-name="Grupo 145856" transform="translate(9242.938 9590)">
    <path id="Trazado_151508" data-name="Trazado 151508" d="M8.234,15.643A1.353,1.353,0,0,0,7.707,14.5a6.917,6.917,0,0,0-1.9-.844,13.458,13.458,0,0,1-2.171-.875A3.547,3.547,0,0,1,1.458,9.6a3.09,3.09,0,0,1,.584-1.85,3.812,3.812,0,0,1,1.679-1.27,6.318,6.318,0,0,1,2.457-.457,5.751,5.751,0,0,1,2.443.5,3.891,3.891,0,0,1,1.666,1.4,3.668,3.668,0,0,1,.593,2.057H8.243a1.726,1.726,0,0,0-.554-1.367,2.276,2.276,0,0,0-1.556-.488,2.432,2.432,0,0,0-1.5.409,1.289,1.289,0,0,0-.536,1.077,1.235,1.235,0,0,0,.628,1.046,7.1,7.1,0,0,0,1.85.791,7.994,7.994,0,0,1,3.278,1.679,3.343,3.343,0,0,1,1.028,2.5,3.08,3.08,0,0,1-1.257,2.606,5.5,5.5,0,0,1-3.384.945,6.534,6.534,0,0,1-2.689-.541A4.256,4.256,0,0,1,1.7,17.154a3.793,3.793,0,0,1-.637-2.18H3.708q0,2.118,2.531,2.118a2.462,2.462,0,0,0,1.468-.382A1.244,1.244,0,0,0,8.234,15.643ZM15.178,19H12.629V9.49h2.549Zm-2.7-11.971a1.251,1.251,0,0,1,.382-.94A1.436,1.436,0,0,1,13.9,5.72a1.44,1.44,0,0,1,1.037.369,1.244,1.244,0,0,1,.387.94,1.247,1.247,0,0,1-.391.949,1.629,1.629,0,0,1-2.065,0A1.247,1.247,0,0,1,12.479,7.029Zm9.94,9.343a.818.818,0,0,0-.461-.734,5.241,5.241,0,0,0-1.481-.479q-3.393-.712-3.393-2.883a2.613,2.613,0,0,1,1.05-2.114,4.237,4.237,0,0,1,2.747-.848,4.56,4.56,0,0,1,2.9.853,2.687,2.687,0,0,1,1.085,2.215h-2.54a1.229,1.229,0,0,0-.352-.9,1.488,1.488,0,0,0-1.1-.356,1.52,1.52,0,0,0-.993.29.916.916,0,0,0-.352.738.783.783,0,0,0,.4.681,4.114,4.114,0,0,0,1.349.448,11.019,11.019,0,0,1,1.6.426,2.628,2.628,0,0,1,2.013,2.558,2.481,2.481,0,0,1-1.116,2.1,4.815,4.815,0,0,1-2.883.8,5.029,5.029,0,0,1-2.123-.426,3.561,3.561,0,0,1-1.455-1.169,2.716,2.716,0,0,1-.527-1.6h2.408a1.326,1.326,0,0,0,.5,1.037,1.987,1.987,0,0,0,1.248.36,1.839,1.839,0,0,0,1.1-.277A.861.861,0,0,0,22.42,16.372Zm7.146-9.22V9.49h1.626v1.863H29.565V16.1a1.133,1.133,0,0,0,.2.756,1.015,1.015,0,0,0,.773.229,4.051,4.051,0,0,0,.747-.062v1.925a5.229,5.229,0,0,1-1.538.229,2.425,2.425,0,0,1-2.725-2.7V11.354H25.637V9.49h1.389V7.152Zm7.418,12.023a4.668,4.668,0,0,1-3.406-1.283,4.561,4.561,0,0,1-1.314-3.419v-.246a5.745,5.745,0,0,1,.554-2.562,4.064,4.064,0,0,1,1.569-1.74A4.4,4.4,0,0,1,36.7,9.314a3.947,3.947,0,0,1,3.072,1.23,5,5,0,0,1,1.121,3.489v1.037H34.839a2.36,2.36,0,0,0,.743,1.494,2.245,2.245,0,0,0,1.569.563,2.742,2.742,0,0,0,2.294-1.063l1.248,1.4a3.813,3.813,0,0,1-1.547,1.261A5.075,5.075,0,0,1,36.983,19.176Zm-.29-7.813a1.587,1.587,0,0,0-1.226.512,2.651,2.651,0,0,0-.6,1.466H38.4v-.2a1.891,1.891,0,0,0-.457-1.311A1.638,1.638,0,0,0,36.693,11.362ZM44.718,9.49l.079,1.063A3.342,3.342,0,0,1,47.53,9.314a2.536,2.536,0,0,1,2.522,1.45,3.265,3.265,0,0,1,2.856-1.45,2.836,2.836,0,0,1,2.3.9,4.141,4.141,0,0,1,.756,2.711V19H53.419V12.936a1.811,1.811,0,0,0-.316-1.182,1.4,1.4,0,0,0-1.116-.374A1.585,1.585,0,0,0,50.4,12.47L50.413,19h-2.54V12.944a1.789,1.789,0,0,0-.325-1.2,1.416,1.416,0,0,0-1.107-.369,1.646,1.646,0,0,0-1.564.9V19h-2.54V9.49ZM63.43,19a2.821,2.821,0,0,1-.255-.853,3.073,3.073,0,0,1-2.4,1.028,3.376,3.376,0,0,1-2.316-.809,2.6,2.6,0,0,1-.918-2.039,2.687,2.687,0,0,1,1.121-2.32A5.529,5.529,0,0,1,61.9,13.19h1.169v-.545a1.567,1.567,0,0,0-.338-1.055,1.331,1.331,0,0,0-1.068-.4,1.513,1.513,0,0,0-1.006.308,1.045,1.045,0,0,0-.365.844h-2.54a2.551,2.551,0,0,1,.51-1.529,3.37,3.37,0,0,1,1.441-1.1,5.253,5.253,0,0,1,2.092-.4,4.15,4.15,0,0,1,2.791.883,3.09,3.09,0,0,1,1.033,2.483V16.8A4.546,4.546,0,0,0,66,18.851V19Zm-2.1-1.767a2.188,2.188,0,0,0,1.037-.25,1.645,1.645,0,0,0,.7-.672V14.676H62.12q-1.907,0-2.03,1.318l-.009.149a1.017,1.017,0,0,0,.334.782A1.3,1.3,0,0,0,61.329,17.233Zm10.327-3.059a5.731,5.731,0,0,1,1-3.542,3.237,3.237,0,0,1,2.729-1.318,2.913,2.913,0,0,1,2.294,1.037V5.5h2.549V19H77.932l-.123-1.011a2.989,2.989,0,0,1-2.443,1.187,3.228,3.228,0,0,1-2.694-1.323A5.916,5.916,0,0,1,71.656,14.175Zm2.54.189a3.754,3.754,0,0,0,.466,2.051,1.517,1.517,0,0,0,1.354.713,1.7,1.7,0,0,0,1.661-.995V12.375a1.675,1.675,0,0,0-1.644-.995Q74.2,11.38,74.2,14.364Zm12.375,4.812a4.668,4.668,0,0,1-3.406-1.283,4.561,4.561,0,0,1-1.314-3.419v-.246a5.745,5.745,0,0,1,.554-2.562,4.064,4.064,0,0,1,1.569-1.74,4.4,4.4,0,0,1,2.316-.611,3.947,3.947,0,0,1,3.072,1.23,5,5,0,0,1,1.121,3.489v1.037H84.427a2.36,2.36,0,0,0,.743,1.494,2.245,2.245,0,0,0,1.569.563,2.742,2.742,0,0,0,2.294-1.063l1.248,1.4a3.813,3.813,0,0,1-1.547,1.261A5.075,5.075,0,0,1,86.571,19.176Zm-.29-7.813a1.587,1.587,0,0,0-1.226.512,2.651,2.651,0,0,0-.6,1.466h3.533v-.2a1.891,1.891,0,0,0-.457-1.311A1.638,1.638,0,0,0,86.281,11.362Zm18.686,2.971a5.7,5.7,0,0,1-1,3.52,3.2,3.2,0,0,1-2.694,1.323,2.963,2.963,0,0,1-2.329-1v4.482h-2.54V9.49h2.355l.088.932a2.985,2.985,0,0,1,2.408-1.107,3.22,3.22,0,0,1,2.733,1.3,5.858,5.858,0,0,1,.976,3.586Zm-2.54-.185a3.743,3.743,0,0,0-.47-2.048,1.532,1.532,0,0,0-1.367-.721,1.663,1.663,0,0,0-1.644.914v3.894a1.692,1.692,0,0,0,1.661.94Q102.427,17.128,102.427,14.148Zm3.718.009a5.64,5.64,0,0,1,.545-2.522,3.989,3.989,0,0,1,1.569-1.714,4.577,4.577,0,0,1,2.377-.606,4.33,4.33,0,0,1,3.142,1.178,4.727,4.727,0,0,1,1.358,3.2l.018.65a4.97,4.97,0,0,1-1.222,3.511,4.735,4.735,0,0,1-6.561,0,5.058,5.058,0,0,1-1.226-3.586Zm2.54.18a3.555,3.555,0,0,0,.51,2.073,1.831,1.831,0,0,0,2.9.009,3.89,3.89,0,0,0,.519-2.267,3.519,3.519,0,0,0-.519-2.06,1.686,1.686,0,0,0-1.459-.731,1.658,1.658,0,0,0-1.441.726A3.955,3.955,0,0,0,108.685,14.338Zm13.184,2.035a.818.818,0,0,0-.461-.734,5.241,5.241,0,0,0-1.481-.479q-3.393-.712-3.393-2.883a2.613,2.613,0,0,1,1.05-2.114,4.237,4.237,0,0,1,2.747-.848,4.56,4.56,0,0,1,2.9.853,2.687,2.687,0,0,1,1.085,2.215h-2.54a1.229,1.229,0,0,0-.352-.9,1.488,1.488,0,0,0-1.1-.356,1.52,1.52,0,0,0-.993.29.916.916,0,0,0-.352.738.783.783,0,0,0,.4.681,4.114,4.114,0,0,0,1.349.448,11.019,11.019,0,0,1,1.6.426,2.628,2.628,0,0,1,2.013,2.558,2.481,2.481,0,0,1-1.116,2.1,4.815,4.815,0,0,1-2.883.8,5.029,5.029,0,0,1-2.123-.426,3.561,3.561,0,0,1-1.455-1.169,2.716,2.716,0,0,1-.527-1.6h2.408a1.326,1.326,0,0,0,.5,1.037,1.987,1.987,0,0,0,1.248.36,1.839,1.839,0,0,0,1.1-.277A.861.861,0,0,0,121.868,16.372ZM128.653,19H126.1V9.49h2.549Zm-2.7-11.971a1.251,1.251,0,0,1,.382-.94,1.648,1.648,0,0,1,2.079,0,1.244,1.244,0,0,1,.387.94,1.247,1.247,0,0,1-.391.949,1.629,1.629,0,0,1-2.065,0A1.247,1.247,0,0,1,125.955,7.029Zm8.745,10.1a1.666,1.666,0,0,0,1.143-.387,1.355,1.355,0,0,0,.457-1.028h2.382a3.258,3.258,0,0,1-.527,1.771,3.48,3.48,0,0,1-1.419,1.248,4.442,4.442,0,0,1-1.991.444,4.129,4.129,0,0,1-3.217-1.3A5.13,5.13,0,0,1,130.35,14.3v-.167a5.071,5.071,0,0,1,1.169-3.507,4.08,4.08,0,0,1,3.208-1.31,4,4,0,0,1,2.861,1.015,3.594,3.594,0,0,1,1.094,2.7H136.3a1.745,1.745,0,0,0-.457-1.206,1.7,1.7,0,0,0-2.5.183,3.749,3.749,0,0,0-.453,2.1v.264a3.8,3.8,0,0,0,.448,2.113A1.549,1.549,0,0,0,134.7,17.128ZM142.813,19h-2.549V9.49h2.549Zm-2.7-11.971a1.251,1.251,0,0,1,.382-.94,1.648,1.648,0,0,1,2.079,0,1.244,1.244,0,0,1,.387.94,1.247,1.247,0,0,1-.391.949,1.629,1.629,0,0,1-2.065,0A1.247,1.247,0,0,1,140.114,7.029Zm4.395,7.128a5.64,5.64,0,0,1,.545-2.522,3.989,3.989,0,0,1,1.569-1.714A4.577,4.577,0,0,1,149,9.314a4.33,4.33,0,0,1,3.142,1.178,4.727,4.727,0,0,1,1.358,3.2l.018.65a4.97,4.97,0,0,1-1.222,3.511,4.735,4.735,0,0,1-6.561,0,5.058,5.058,0,0,1-1.226-3.586Zm2.54.18a3.555,3.555,0,0,0,.51,2.073,1.831,1.831,0,0,0,2.9.009,3.89,3.89,0,0,0,.519-2.267,3.519,3.519,0,0,0-.519-2.06A1.686,1.686,0,0,0,149,11.362a1.658,1.658,0,0,0-1.441.726A3.955,3.955,0,0,0,147.049,14.338ZM157.42,9.49l.079,1.1a3.32,3.32,0,0,1,2.733-1.274,2.759,2.759,0,0,1,2.25.888,4.142,4.142,0,0,1,.756,2.654V19H160.7V12.918a1.648,1.648,0,0,0-.352-1.173,1.574,1.574,0,0,0-1.169-.365,1.747,1.747,0,0,0-1.608.914V19h-2.54V9.49ZM170.674,19a2.821,2.821,0,0,1-.255-.853,3.073,3.073,0,0,1-2.4,1.028,3.376,3.376,0,0,1-2.316-.809,2.6,2.6,0,0,1-.918-2.039,2.687,2.687,0,0,1,1.121-2.32,5.529,5.529,0,0,1,3.239-.817h1.169v-.545a1.567,1.567,0,0,0-.338-1.055,1.331,1.331,0,0,0-1.068-.4,1.513,1.513,0,0,0-1.006.308,1.045,1.045,0,0,0-.365.844H165a2.551,2.551,0,0,1,.51-1.529,3.37,3.37,0,0,1,1.441-1.1,5.253,5.253,0,0,1,2.092-.4,4.15,4.15,0,0,1,2.791.883,3.09,3.09,0,0,1,1.033,2.483V16.8a4.546,4.546,0,0,0,.378,2.048V19Zm-2.1-1.767a2.188,2.188,0,0,0,1.037-.25,1.645,1.645,0,0,0,.7-.672V14.676h-.949q-1.907,0-2.03,1.318l-.009.149a1.017,1.017,0,0,0,.334.782A1.3,1.3,0,0,0,168.573,17.233ZM177.2,9.49l.079,1.063a3.342,3.342,0,0,1,2.733-1.239,2.536,2.536,0,0,1,2.522,1.45,3.265,3.265,0,0,1,2.856-1.45,2.836,2.836,0,0,1,2.3.9,4.141,4.141,0,0,1,.756,2.711V19H185.9V12.936a1.811,1.811,0,0,0-.316-1.182,1.4,1.4,0,0,0-1.116-.374,1.585,1.585,0,0,0-1.582,1.09l.009,6.53h-2.54V12.944a1.789,1.789,0,0,0-.325-1.2,1.416,1.416,0,0,0-1.107-.369,1.646,1.646,0,0,0-1.564.9V19h-2.54V9.49ZM193.077,19h-2.549V9.49h2.549Zm-2.7-11.971a1.251,1.251,0,0,1,.382-.94,1.648,1.648,0,0,1,2.079,0,1.244,1.244,0,0,1,.387.94,1.247,1.247,0,0,1-.391.949,1.629,1.629,0,0,1-2.065,0A1.247,1.247,0,0,1,190.379,7.029Zm9.167,12.146a4.668,4.668,0,0,1-3.406-1.283,4.561,4.561,0,0,1-1.314-3.419v-.246a5.745,5.745,0,0,1,.554-2.562,4.064,4.064,0,0,1,1.569-1.74,4.4,4.4,0,0,1,2.316-.611,3.947,3.947,0,0,1,3.072,1.23,5,5,0,0,1,1.121,3.489v1.037H197.4a2.36,2.36,0,0,0,.743,1.494,2.245,2.245,0,0,0,1.569.563,2.742,2.742,0,0,0,2.294-1.063l1.248,1.4a3.813,3.813,0,0,1-1.547,1.261A5.075,5.075,0,0,1,199.546,19.176Zm-.29-7.813a1.587,1.587,0,0,0-1.226.512,2.651,2.651,0,0,0-.6,1.466h3.533v-.2a1.891,1.891,0,0,0-.457-1.311A1.638,1.638,0,0,0,199.256,11.362Zm7.98-1.872.079,1.1a3.32,3.32,0,0,1,2.733-1.274,2.759,2.759,0,0,1,2.25.888,4.142,4.142,0,0,1,.756,2.654V19h-2.54V12.918a1.648,1.648,0,0,0-.352-1.173,1.574,1.574,0,0,0-1.169-.365,1.747,1.747,0,0,0-1.608.914V19h-2.54V9.49Zm10.784-2.338V9.49h1.626v1.863h-1.626V16.1a1.133,1.133,0,0,0,.2.756,1.015,1.015,0,0,0,.773.229,4.051,4.051,0,0,0,.747-.062v1.925a5.229,5.229,0,0,1-1.538.229,2.425,2.425,0,0,1-2.725-2.7V11.354h-1.389V9.49h1.389V7.152Zm2.382,7a5.64,5.64,0,0,1,.545-2.522,3.989,3.989,0,0,1,1.569-1.714,4.577,4.577,0,0,1,2.377-.606,4.33,4.33,0,0,1,3.142,1.178,4.727,4.727,0,0,1,1.358,3.2l.018.65a4.97,4.97,0,0,1-1.222,3.511,4.735,4.735,0,0,1-6.561,0,5.058,5.058,0,0,1-1.226-3.586Zm2.54.18a3.555,3.555,0,0,0,.51,2.073,1.831,1.831,0,0,0,2.9.009,3.89,3.89,0,0,0,.519-2.267,3.519,3.519,0,0,0-.519-2.06,1.686,1.686,0,0,0-1.459-.731,1.658,1.658,0,0,0-1.441.726A3.955,3.955,0,0,0,222.942,14.338Zm-94.2,23.837a5.573,5.573,0,0,1,1.042-3.524,3.375,3.375,0,0,1,2.808-1.336,2.96,2.96,0,0,1,2.435,1.072l.105-.9h2.3v9.193a4.064,4.064,0,0,1-.567,2.171,3.641,3.641,0,0,1-1.6,1.406,5.608,5.608,0,0,1-2.408.483,5.215,5.215,0,0,1-2.039-.417,3.619,3.619,0,0,1-1.5-1.077l1.125-1.547a2.975,2.975,0,0,0,2.3,1.063,2.178,2.178,0,0,0,1.573-.541,2.027,2.027,0,0,0,.563-1.534v-.51a2.938,2.938,0,0,1-2.312.993,3.366,3.366,0,0,1-2.773-1.34,5.572,5.572,0,0,1-1.059-3.555Zm2.54.189a3.47,3.47,0,0,0,.519,2.029,1.65,1.65,0,0,0,1.424.735,1.764,1.764,0,0,0,1.661-.871V36.251a1.76,1.76,0,0,0-1.644-.871,1.66,1.66,0,0,0-1.437.748A3.911,3.911,0,0,0,131.281,38.364ZM142.065,43h-2.549V29.5h2.549Zm1.7-4.843a5.64,5.64,0,0,1,.545-2.522,3.989,3.989,0,0,1,1.569-1.714,4.577,4.577,0,0,1,2.377-.606,4.33,4.33,0,0,1,3.142,1.178,4.727,4.727,0,0,1,1.358,3.2l.018.65a4.97,4.97,0,0,1-1.222,3.511,4.735,4.735,0,0,1-6.561,0,5.058,5.058,0,0,1-1.226-3.586Zm2.54.18a3.555,3.555,0,0,0,.51,2.073,1.831,1.831,0,0,0,2.9.009,3.89,3.89,0,0,0,.519-2.267,3.519,3.519,0,0,0-.519-2.06,1.686,1.686,0,0,0-1.459-.731,1.658,1.658,0,0,0-1.441.726A3.955,3.955,0,0,0,146.3,38.338Zm16.6,0a5.758,5.758,0,0,1-.976,3.564,3.231,3.231,0,0,1-2.725,1.279,2.969,2.969,0,0,1-2.47-1.187L156.62,43h-2.285V29.5h2.54v4.843a2.893,2.893,0,0,1,2.312-1.028,3.258,3.258,0,0,1,2.729,1.279,5.767,5.767,0,0,1,.989,3.6Zm-2.54-.185a3.783,3.783,0,0,0-.457-2.1,1.545,1.545,0,0,0-1.362-.664,1.676,1.676,0,0,0-1.67.993v3.753a1.7,1.7,0,0,0,1.688,1,1.568,1.568,0,0,0,1.617-1.213A6.257,6.257,0,0,0,160.364,38.148ZM169.979,43a2.821,2.821,0,0,1-.255-.853,3.073,3.073,0,0,1-2.4,1.028,3.376,3.376,0,0,1-2.316-.809,2.6,2.6,0,0,1-.918-2.039,2.687,2.687,0,0,1,1.121-2.32,5.529,5.529,0,0,1,3.239-.817h1.169v-.545a1.567,1.567,0,0,0-.338-1.055,1.331,1.331,0,0,0-1.068-.4,1.513,1.513,0,0,0-1.006.308,1.045,1.045,0,0,0-.365.844H164.3a2.551,2.551,0,0,1,.51-1.529,3.37,3.37,0,0,1,1.441-1.1,5.253,5.253,0,0,1,2.092-.4,4.15,4.15,0,0,1,2.791.883,3.09,3.09,0,0,1,1.033,2.483V40.8a4.546,4.546,0,0,0,.378,2.048V43Zm-2.1-1.767a2.188,2.188,0,0,0,1.037-.25,1.645,1.645,0,0,0,.7-.672V38.676h-.949q-1.907,0-2.03,1.318l-.009.149a1.017,1.017,0,0,0,.334.782A1.3,1.3,0,0,0,167.879,41.233ZM176.8,43h-2.549V29.5H176.8Zm6.688-5.2a13.488,13.488,0,0,1,.536-3.832,10.112,10.112,0,0,1,1.582-3.221,5.907,5.907,0,0,1,2.268-1.947l.492,1.371a6.118,6.118,0,0,0-2,2.936,13.592,13.592,0,0,0-.721,4.641v.272a13.852,13.852,0,0,0,.712,4.658,6.237,6.237,0,0,0,2.013,2.979L187.874,47a5.91,5.91,0,0,1-2.228-1.894,9.943,9.943,0,0,1-1.578-3.133,13.408,13.408,0,0,1-.58-3.709Zm16.5,3.586a4.577,4.577,0,0,1-2.013,1.323,8.429,8.429,0,0,1-2.883.47,5.711,5.711,0,0,1-2.914-.725,4.836,4.836,0,0,1-1.934-2.1,7.408,7.408,0,0,1-.7-3.243v-.87a7.868,7.868,0,0,1,.646-3.318,4.779,4.779,0,0,1,1.863-2.145,6.135,6.135,0,0,1,6.412.343,4.639,4.639,0,0,1,1.521,3.16h-2.566a2.552,2.552,0,0,0-.778-1.608,2.484,2.484,0,0,0-1.657-.51,2.338,2.338,0,0,0-2.048,1.011,5.315,5.315,0,0,0-.712,3.006v.817a5.06,5.06,0,0,0,.765,3.041,2.618,2.618,0,0,0,2.241,1.028,2.925,2.925,0,0,0,2.118-.633V38.219h-2.4V36.276h5.036Zm4.772-2.892V43h-2.637V30.2h4.992a5.776,5.776,0,0,1,2.536.527,3.886,3.886,0,0,1,1.683,1.5,4.178,4.178,0,0,1,.589,2.21,3.674,3.674,0,0,1-1.288,2.966,5.363,5.363,0,0,1-3.564,1.085Zm0-2.136h2.355a2.316,2.316,0,0,0,1.6-.492,1.79,1.79,0,0,0,.549-1.406,2.111,2.111,0,0,0-.554-1.521,2.068,2.068,0,0,0-1.529-.6h-2.417Zm15.609,3.287a1.353,1.353,0,0,0-.527-1.147,6.917,6.917,0,0,0-1.9-.844,13.458,13.458,0,0,1-2.171-.875,3.547,3.547,0,0,1-2.18-3.173,3.09,3.09,0,0,1,.584-1.85,3.812,3.812,0,0,1,1.679-1.27,6.318,6.318,0,0,1,2.457-.457,5.751,5.751,0,0,1,2.443.5,3.891,3.891,0,0,1,1.666,1.4,3.668,3.668,0,0,1,.593,2.057h-2.637a1.726,1.726,0,0,0-.554-1.367,2.276,2.276,0,0,0-1.556-.488,2.432,2.432,0,0,0-1.5.409,1.289,1.289,0,0,0-.536,1.077,1.235,1.235,0,0,0,.628,1.046,7.1,7.1,0,0,0,1.85.791,7.994,7.994,0,0,1,3.278,1.679,3.343,3.343,0,0,1,1.028,2.5,3.08,3.08,0,0,1-1.257,2.606,5.5,5.5,0,0,1-3.384.945,6.534,6.534,0,0,1-2.689-.541,4.256,4.256,0,0,1-1.85-1.481,3.793,3.793,0,0,1-.637-2.18h2.646q0,2.118,2.531,2.118a2.462,2.462,0,0,0,1.468-.382A1.244,1.244,0,0,0,220.367,39.643ZM229.007,38a12.8,12.8,0,0,1-.571,3.823,10.378,10.378,0,0,1-1.644,3.243A5.921,5.921,0,0,1,224.5,47l-.492-1.345a6.18,6.18,0,0,0,1.969-2.9,13.431,13.431,0,0,0,.747-4.509v-.466a13.735,13.735,0,0,0-.716-4.632,6.442,6.442,0,0,0-2-3.006L224.5,28.8a5.923,5.923,0,0,1,2.254,1.881,10.244,10.244,0,0,1,1.644,3.173,12.708,12.708,0,0,1,.611,3.753Z" transform="translate(-9244 -9485)" fill="#12263f"/>
    <g id="Grupo_91648" data-name="Grupo 91648" transform="translate(-9160.714 -9589.999)">
      <rect id="Rectángulo_35454" data-name="Rectángulo 35454" width="146.566" height="6.578" transform="translate(0 78.921)" fill="#cb001c"/>
      <rect id="Rectángulo_35455" data-name="Rectángulo 35455" width="146.566" height="6.578" transform="translate(0 72.343)" fill="#fff"/>
      <rect id="Rectángulo_35456" data-name="Rectángulo 35456" width="146.566" height="6.574" transform="translate(0 65.769)" fill="#cb001c"/>
      <rect id="Rectángulo_35457" data-name="Rectángulo 35457" width="146.566" height="6.578" transform="translate(0 59.192)" fill="#fff"/>
      <rect id="Rectángulo_35458" data-name="Rectángulo 35458" width="146.566" height="6.578" transform="translate(0 52.614)" fill="#cb001c"/>
      <rect id="Rectángulo_35459" data-name="Rectángulo 35459" width="146.566" height="6.574" transform="translate(0 46.04)" fill="#fff"/>
      <rect id="Rectángulo_35460" data-name="Rectángulo 35460" width="146.566" height="6.577" transform="translate(0 39.463)" fill="#cb001c"/>
      <rect id="Rectángulo_35461" data-name="Rectángulo 35461" width="146.566" height="6.574" transform="translate(0 32.884)" fill="#fff"/>
      <rect id="Rectángulo_35462" data-name="Rectángulo 35462" width="146.566" height="6.577" transform="translate(0 26.307)" fill="#cb001c"/>
      <rect id="Rectángulo_35463" data-name="Rectángulo 35463" width="146.566" height="6.578" transform="translate(0 19.729)" fill="#fff"/>
      <rect id="Rectángulo_35464" data-name="Rectángulo 35464" width="146.566" height="6.578" transform="translate(0 13.151)" fill="#cb001c"/>
      <rect id="Rectángulo_35465" data-name="Rectángulo 35465" width="146.566" height="6.574" transform="translate(0 6.578)" fill="#fff"/>
      <rect id="Rectángulo_35466" data-name="Rectángulo 35466" width="146.566" height="6.578" transform="translate(0 -0.001)" fill="#cb001c"/>
      <rect id="Rectángulo_35467" data-name="Rectángulo 35467" width="66.919" height="46.041" transform="translate(0 -0.001)" fill="#2a3560"/>
      <path id="Trazado_142171" data-name="Trazado 142171" d="M6.513,5.74,7.08,7.484H8.907L7.428,8.558,7.994,10.3,6.513,9.219,5.034,10.3,5.6,8.558,4.119,7.484h1.83Z" transform="translate(-0.479 -0.668)" fill="#fff"/>
      <path id="Trazado_142172" data-name="Trazado 142172" d="M6.513,14.437l.567,1.739H8.907L7.428,17.25l.566,1.744L6.513,17.915,5.034,18.994,5.6,17.25l-1.48-1.074h1.83Z" transform="translate(-0.479 -1.679)" fill="#fff"/>
      <path id="Trazado_142173" data-name="Trazado 142173" d="M6.513,23.134l.567,1.739H8.907L7.428,25.947l.566,1.744L6.513,26.612,5.034,27.691,5.6,25.947l-1.48-1.074h1.83Z" transform="translate(-0.479 -2.691)" fill="#fff"/>
      <path id="Trazado_142174" data-name="Trazado 142174" d="M6.513,31.832l.567,1.739H8.907L7.428,34.649l.566,1.735L6.513,35.31,5.034,36.383,5.6,34.649l-1.48-1.078h1.83Z" transform="translate(-0.479 -3.703)" fill="#fff"/>
      <path id="Trazado_142175" data-name="Trazado 142175" d="M6.513,40.528l.567,1.74H8.907L7.428,43.341l.566,1.74L6.513,44.007,5.034,45.081l.566-1.74-1.48-1.073h1.83Z" transform="translate(-0.479 -4.714)" fill="#fff"/>
      <path id="Trazado_142176" data-name="Trazado 142176" d="M12.571,10.325l.566,1.739h1.829l-1.481,1.074.566,1.739L12.571,13.8l-1.482,1.074.566-1.739-1.479-1.074h1.829Z" transform="translate(-1.184 -1.201)" fill="#fff"/>
      <path id="Trazado_142177" data-name="Trazado 142177" d="M12.571,19.022l.566,1.734h1.829l-1.481,1.079.566,1.739L12.571,22.5l-1.482,1.074.566-1.739-1.479-1.079h1.829Z" transform="translate(-1.184 -2.213)" fill="#fff"/>
      <path id="Trazado_142178" data-name="Trazado 142178" d="M12.571,27.714l.566,1.739h1.829l-1.481,1.079.566,1.739L12.571,31.2l-1.482,1.074.566-1.739-1.479-1.079h1.829Z" transform="translate(-1.184 -3.224)" fill="#fff"/>
      <path id="Trazado_142179" data-name="Trazado 142179" d="M12.571,36.411l.566,1.74h1.829l-1.481,1.077.566,1.735-1.48-1.074-1.482,1.074.566-1.735-1.479-1.077h1.829Z" transform="translate(-1.184 -4.235)" fill="#fff"/>
      <path id="Trazado_142180" data-name="Trazado 142180" d="M18.7,5.74l.567,1.744H21.1L19.619,8.558l.566,1.739L18.7,9.219,17.224,10.3l.566-1.739L16.31,7.484h1.827Z" transform="translate(-1.897 -0.668)" fill="#fff"/>
      <path id="Trazado_142181" data-name="Trazado 142181" d="M18.7,14.437l.567,1.739H21.1L19.619,17.25l.566,1.744L18.7,17.915l-1.48,1.079.566-1.744L16.31,16.176h1.827Z" transform="translate(-1.897 -1.679)" fill="#fff"/>
      <path id="Trazado_142182" data-name="Trazado 142182" d="M18.7,23.134l.567,1.739H21.1l-1.479,1.074.566,1.744L18.7,26.612l-1.48,1.079.566-1.744L16.31,24.873h1.827Z" transform="translate(-1.897 -2.691)" fill="#fff"/>
      <path id="Trazado_142183" data-name="Trazado 142183" d="M18.7,31.832l.567,1.739H21.1l-1.479,1.078.566,1.735L18.7,35.31l-1.48,1.074.566-1.735L16.31,33.571h1.827Z" transform="translate(-1.897 -3.703)" fill="#fff"/>
      <path id="Trazado_142184" data-name="Trazado 142184" d="M18.7,40.528l.567,1.74H21.1l-1.479,1.073.566,1.74L18.7,44.007l-1.48,1.074.566-1.74L16.31,42.268h1.827Z" transform="translate(-1.897 -4.714)" fill="#fff"/>
      <path id="Trazado_142185" data-name="Trazado 142185" d="M24.762,10.325l.566,1.739h1.829l-1.481,1.074.565,1.739L24.762,13.8,23.28,14.877l.566-1.739-1.478-1.074H24.2Z" transform="translate(-2.602 -1.201)" fill="#fff"/>
      <path id="Trazado_142186" data-name="Trazado 142186" d="M24.762,19.022l.566,1.734h1.829l-1.481,1.079.565,1.739L24.762,22.5,23.28,23.574l.566-1.739-1.478-1.079H24.2Z" transform="translate(-2.602 -2.213)" fill="#fff"/>
      <path id="Trazado_142187" data-name="Trazado 142187" d="M24.762,27.714l.566,1.739h1.829l-1.481,1.079.565,1.739L24.762,31.2,23.28,32.271l.566-1.739-1.478-1.079H24.2Z" transform="translate(-2.602 -3.224)" fill="#fff"/>
      <path id="Trazado_142188" data-name="Trazado 142188" d="M24.762,36.411l.566,1.74h1.829l-1.481,1.077.565,1.735-1.478-1.074L23.28,40.963l.566-1.735-1.478-1.077H24.2Z" transform="translate(-2.602 -4.235)" fill="#fff"/>
      <path id="Trazado_142189" data-name="Trazado 142189" d="M30.894,5.74l.566,1.744H33.29L31.808,8.558l.565,1.739L30.894,9.219,29.413,10.3l.566-1.739L28.5,7.484h1.829Z" transform="translate(-3.315 -0.668)" fill="#fff"/>
      <path id="Trazado_142190" data-name="Trazado 142190" d="M30.894,14.437l.566,1.739H33.29L31.808,17.25l.565,1.744-1.479-1.079-1.481,1.079.566-1.744L28.5,16.176h1.829Z" transform="translate(-3.315 -1.679)" fill="#fff"/>
      <path id="Trazado_142191" data-name="Trazado 142191" d="M30.894,23.134l.566,1.739H33.29l-1.481,1.074.565,1.744-1.479-1.079-1.481,1.079.566-1.744L28.5,24.873h1.829Z" transform="translate(-3.315 -2.691)" fill="#fff"/>
      <path id="Trazado_142192" data-name="Trazado 142192" d="M30.894,31.832l.566,1.739H33.29l-1.481,1.078.565,1.735L30.894,35.31l-1.481,1.074.566-1.735L28.5,33.571h1.829Z" transform="translate(-3.315 -3.703)" fill="#fff"/>
      <path id="Trazado_142193" data-name="Trazado 142193" d="M30.894,40.528l.566,1.74H33.29l-1.481,1.073.565,1.74-1.479-1.074-1.481,1.074.566-1.74L28.5,42.268h1.829Z" transform="translate(-3.315 -4.714)" fill="#fff"/>
      <path id="Trazado_142194" data-name="Trazado 142194" d="M36.953,10.325l.566,1.739h1.828l-1.482,1.074.566,1.739L36.953,13.8l-1.482,1.074.566-1.739L34.56,12.064h1.827Z" transform="translate(-4.02 -1.201)" fill="#fff"/>
      <path id="Trazado_142195" data-name="Trazado 142195" d="M36.953,19.022l.566,1.734h1.828l-1.482,1.079.566,1.739L36.953,22.5l-1.482,1.074.566-1.739L34.56,20.756h1.827Z" transform="translate(-4.02 -2.213)" fill="#fff"/>
      <path id="Trazado_142196" data-name="Trazado 142196" d="M36.953,27.714l.566,1.739h1.828l-1.482,1.079.566,1.739L36.953,31.2l-1.482,1.074.566-1.739L34.56,29.453h1.827Z" transform="translate(-4.02 -3.224)" fill="#fff"/>
      <path id="Trazado_142197" data-name="Trazado 142197" d="M36.953,36.411l.566,1.74h1.828l-1.482,1.077.566,1.735-1.478-1.074-1.482,1.074.566-1.735L34.56,38.151h1.827Z" transform="translate(-4.02 -4.235)" fill="#fff"/>
      <path id="Trazado_142198" data-name="Trazado 142198" d="M43.085,5.74l.566,1.744h1.829L44,8.558l.563,1.739L43.085,9.219,41.607,10.3l.566-1.739L40.691,7.484h1.829Z" transform="translate(-4.733 -0.668)" fill="#fff"/>
      <path id="Trazado_142199" data-name="Trazado 142199" d="M43.085,14.437l.566,1.739h1.829L44,17.25l.563,1.744-1.479-1.079-1.478,1.079.566-1.744-1.481-1.074h1.829Z" transform="translate(-4.733 -1.679)" fill="#fff"/>
      <path id="Trazado_142200" data-name="Trazado 142200" d="M43.085,23.134l.566,1.739h1.829L44,25.947l.563,1.744-1.479-1.079-1.478,1.079.566-1.744-1.481-1.074h1.829Z" transform="translate(-4.733 -2.691)" fill="#fff"/>
      <path id="Trazado_142201" data-name="Trazado 142201" d="M43.085,31.832l.566,1.739h1.829L44,34.649l.563,1.735L43.085,35.31l-1.478,1.074.566-1.735-1.481-1.078h1.829Z" transform="translate(-4.733 -3.703)" fill="#fff"/>
      <path id="Trazado_142202" data-name="Trazado 142202" d="M43.085,40.528l.566,1.74h1.829L44,43.341l.563,1.74-1.479-1.074-1.478,1.074.566-1.74-1.481-1.073h1.829Z" transform="translate(-4.733 -4.714)" fill="#fff"/>
      <path id="Trazado_142203" data-name="Trazado 142203" d="M49.144,10.325l.566,1.739h1.827l-1.479,1.074.566,1.739L49.144,13.8l-1.482,1.074.567-1.739-1.481-1.074h1.827Z" transform="translate(-5.438 -1.201)" fill="#fff"/>
      <path id="Trazado_142204" data-name="Trazado 142204" d="M49.144,19.022l.566,1.734h1.827l-1.479,1.079.566,1.739L49.144,22.5l-1.482,1.074.567-1.739-1.481-1.079h1.827Z" transform="translate(-5.438 -2.213)" fill="#fff"/>
      <path id="Trazado_142205" data-name="Trazado 142205" d="M49.144,27.714l.566,1.739h1.827l-1.479,1.079.566,1.739L49.144,31.2l-1.482,1.074.567-1.739-1.481-1.079h1.827Z" transform="translate(-5.438 -3.224)" fill="#fff"/>
      <path id="Trazado_142206" data-name="Trazado 142206" d="M49.144,36.411l.566,1.74h1.827l-1.479,1.077.566,1.735-1.479-1.074-1.482,1.074.567-1.735-1.481-1.077h1.827Z" transform="translate(-5.438 -4.235)" fill="#fff"/>
      <path id="Trazado_142207" data-name="Trazado 142207" d="M55.277,5.74l.566,1.744h1.829L56.193,8.558l.563,1.739L55.277,9.219,53.8,10.3l.562-1.739L52.882,7.484H54.71Z" transform="translate(-6.151 -0.668)" fill="#fff"/>
      <path id="Trazado_142208" data-name="Trazado 142208" d="M55.277,14.437l.566,1.739h1.829L56.193,17.25l.563,1.744-1.479-1.079L53.8,18.994l.562-1.744-1.478-1.074H54.71Z" transform="translate(-6.151 -1.679)" fill="#fff"/>
      <path id="Trazado_142209" data-name="Trazado 142209" d="M55.277,23.134l.566,1.739h1.829l-1.479,1.074.563,1.744-1.479-1.079L53.8,27.691l.562-1.744-1.478-1.074H54.71Z" transform="translate(-6.151 -2.691)" fill="#fff"/>
      <path id="Trazado_142210" data-name="Trazado 142210" d="M55.277,31.832l.566,1.739h1.829l-1.479,1.078.563,1.735L55.277,35.31,53.8,36.383l.562-1.735-1.478-1.078H54.71Z" transform="translate(-6.151 -3.703)" fill="#fff"/>
      <path id="Trazado_142211" data-name="Trazado 142211" d="M55.277,40.528l.566,1.74h1.829l-1.479,1.073.563,1.74-1.479-1.074L53.8,45.081l.562-1.74-1.478-1.073H54.71Z" transform="translate(-6.151 -4.714)" fill="#fff"/>
      <path id="Trazado_142212" data-name="Trazado 142212" d="M61.331,10.325l.566,1.739h1.829l-1.478,1.074.565,1.739L61.331,13.8l-1.478,1.074.566-1.739-1.481-1.074h1.829Z" transform="translate(-6.856 -1.201)" fill="#fff"/>
      <path id="Trazado_142213" data-name="Trazado 142213" d="M61.331,19.022l.566,1.734h1.829l-1.478,1.079.565,1.739L61.331,22.5l-1.478,1.074.566-1.739-1.481-1.079h1.829Z" transform="translate(-6.856 -2.213)" fill="#fff"/>
      <path id="Trazado_142214" data-name="Trazado 142214" d="M61.331,27.714l.566,1.739h1.829l-1.478,1.079.565,1.739L61.331,31.2l-1.478,1.074.566-1.739-1.481-1.079h1.829Z" transform="translate(-6.856 -3.224)" fill="#fff"/>
      <path id="Trazado_142215" data-name="Trazado 142215" d="M61.331,36.411l.566,1.74h1.829l-1.478,1.077.565,1.735-1.482-1.074-1.478,1.074.566-1.735-1.481-1.077h1.829Z" transform="translate(-6.856 -4.235)" fill="#fff"/>
      <path id="Trazado_142216" data-name="Trazado 142216" d="M67.467,5.74l.566,1.744h1.829L68.383,8.558l.566,1.739L67.467,9.219,65.986,10.3l.567-1.739-1.48-1.074H66.9Z" transform="translate(-7.569 -0.668)" fill="#fff"/>
      <path id="Trazado_142217" data-name="Trazado 142217" d="M67.467,14.437l.566,1.739h1.829L68.383,17.25l.566,1.744-1.482-1.079-1.481,1.079.567-1.744-1.48-1.074H66.9Z" transform="translate(-7.569 -1.679)" fill="#fff"/>
      <path id="Trazado_142218" data-name="Trazado 142218" d="M67.467,23.134l.566,1.739h1.829l-1.478,1.074.566,1.744-1.482-1.079-1.481,1.079.567-1.744-1.48-1.074H66.9Z" transform="translate(-7.569 -2.691)" fill="#fff"/>
      <path id="Trazado_142219" data-name="Trazado 142219" d="M67.467,31.832l.566,1.739h1.829l-1.478,1.078.566,1.735L67.467,35.31l-1.481,1.074.567-1.735-1.48-1.078H66.9Z" transform="translate(-7.569 -3.703)" fill="#fff"/>
      <path id="Trazado_142220" data-name="Trazado 142220" d="M67.467,40.528l.566,1.74h1.829l-1.478,1.073.566,1.74-1.482-1.074-1.481,1.074.567-1.74-1.48-1.073H66.9Z" transform="translate(-7.569 -4.714)" fill="#fff"/>
    </g>
  </g>
</svg>
