<svg xmlns="http://www.w3.org/2000/svg" width="146.566" height="124.176" viewBox="0 0 146.566 124.176">
  <g id="Grupo_145856" data-name="Grupo 145856" transform="translate(9857.566 9689)">
    <path id="Trazado_151509" data-name="Trazado 151509" d="M77.443,17.383a4.577,4.577,0,0,1-2.013,1.323,8.429,8.429,0,0,1-2.883.47,5.711,5.711,0,0,1-2.914-.725,4.836,4.836,0,0,1-1.934-2.1A7.408,7.408,0,0,1,67,13.1v-.87a7.868,7.868,0,0,1,.646-3.318A4.779,4.779,0,0,1,69.511,6.77a6.135,6.135,0,0,1,6.412.343,4.639,4.639,0,0,1,1.521,3.16H74.877A2.552,2.552,0,0,0,74.1,8.664a2.484,2.484,0,0,0-1.657-.51,2.338,2.338,0,0,0-2.048,1.011,5.315,5.315,0,0,0-.712,3.006v.817a5.06,5.06,0,0,0,.765,3.041,2.618,2.618,0,0,0,2.241,1.028,2.925,2.925,0,0,0,2.118-.633V14.219h-2.4V12.276h5.036Zm4.772-.5h5.6V19H79.579V6.2h2.637Zm17.06-3.99a7.725,7.725,0,0,1-.668,3.313A5.03,5.03,0,0,1,96.7,18.4,5.649,5.649,0,0,1,91,18.411a5.08,5.08,0,0,1-1.934-2.184,7.5,7.5,0,0,1-.694-3.265v-.633A7.685,7.685,0,0,1,89.058,9,5.072,5.072,0,0,1,90.983,6.8a5.64,5.64,0,0,1,5.687,0A5.072,5.072,0,0,1,98.594,9a7.663,7.663,0,0,1,.681,3.318Zm-2.672-.58a5.385,5.385,0,0,0-.721-3.059,2.546,2.546,0,0,0-4.1-.013,5.324,5.324,0,0,0-.729,3.028v.624a5.453,5.453,0,0,0,.721,3.041,2.524,2.524,0,0,0,4.113.04,5.421,5.421,0,0,0,.721-3.037ZM111.6,19h-2.637l-5.133-8.42V19h-2.637V6.2h2.637l5.142,8.438V6.2H111.6Zm9.527-2.637H116.5L115.623,19h-2.8l4.764-12.8h2.443l4.79,12.8h-2.8Zm-3.911-2.136h3.2L118.8,9.438Zm15.434,1.415a1.353,1.353,0,0,0-.527-1.147,6.917,6.917,0,0,0-1.9-.844,13.458,13.458,0,0,1-2.171-.875,3.547,3.547,0,0,1-2.18-3.173,3.09,3.09,0,0,1,.584-1.85,3.812,3.812,0,0,1,1.679-1.27,6.318,6.318,0,0,1,2.457-.457,5.751,5.751,0,0,1,2.443.5,3.891,3.891,0,0,1,1.666,1.4,3.668,3.668,0,0,1,.593,2.057h-2.637a1.726,1.726,0,0,0-.554-1.367,2.276,2.276,0,0,0-1.556-.488,2.432,2.432,0,0,0-1.5.409,1.289,1.289,0,0,0-.536,1.077,1.235,1.235,0,0,0,.628,1.046,7.1,7.1,0,0,0,1.85.791,7.994,7.994,0,0,1,3.278,1.679,3.343,3.343,0,0,1,1.028,2.5,3.08,3.08,0,0,1-1.257,2.606,5.5,5.5,0,0,1-3.384.945,6.534,6.534,0,0,1-2.689-.541,4.256,4.256,0,0,1-1.85-1.481,3.793,3.793,0,0,1-.637-2.18h2.646q0,2.118,2.531,2.118a2.462,2.462,0,0,0,1.468-.382A1.244,1.244,0,0,0,132.647,15.643Zm11.065,0a1.353,1.353,0,0,0-.527-1.147,6.917,6.917,0,0,0-1.9-.844,13.458,13.458,0,0,1-2.171-.875,3.547,3.547,0,0,1-2.18-3.173,3.09,3.09,0,0,1,.584-1.85,3.812,3.812,0,0,1,1.679-1.27,6.318,6.318,0,0,1,2.457-.457,5.751,5.751,0,0,1,2.443.5,3.891,3.891,0,0,1,1.666,1.4,3.668,3.668,0,0,1,.593,2.057h-2.637a1.726,1.726,0,0,0-.554-1.367,2.276,2.276,0,0,0-1.556-.488,2.432,2.432,0,0,0-1.5.409,1.289,1.289,0,0,0-.536,1.077,1.235,1.235,0,0,0,.628,1.046,7.1,7.1,0,0,0,1.85.791,7.994,7.994,0,0,1,3.278,1.679,3.343,3.343,0,0,1,1.028,2.5,3.08,3.08,0,0,1-1.257,2.606,5.5,5.5,0,0,1-3.384.945,6.534,6.534,0,0,1-2.689-.541,4.256,4.256,0,0,1-1.85-1.481,3.793,3.793,0,0,1-.637-2.18h2.646q0,2.118,2.531,2.118a2.462,2.462,0,0,0,1.468-.382A1.244,1.244,0,0,0,143.713,15.643Z" transform="translate(-9858 -9584)" fill="#12263f"/>
    <g id="Grupo_91670" data-name="Grupo 91670" transform="translate(-9857.566 -9689)">
      <rect id="Rectángulo_35488" data-name="Rectángulo 35488" width="146.567" height="28.498" transform="translate(0 0)" fill="#f4f4f4"/>
      <rect id="Rectángulo_35489" data-name="Rectángulo 35489" width="146.567" height="28.503" transform="translate(0 28.498)" fill="#323e95"/>
      <rect id="Rectángulo_35490" data-name="Rectángulo 35490" width="146.567" height="28.499" transform="translate(0 57.001)" fill="#d8001e"/>
    </g>
  </g>
</svg>
