<svg xmlns="http://www.w3.org/2000/svg" xmlns:xlink="http://www.w3.org/1999/xlink" width="145.886" height="124.176" viewBox="0 0 145.886 124.176">
  <defs>
    <clipPath id="clip-path">
      <rect id="Rectángulo_35493" data-name="Rectángulo 35493" width="145.886" height="85.5" fill="none"/>
    </clipPath>
  </defs>
  <g id="Grupo_145858" data-name="Grupo 145858" transform="translate(10585.033 9178)">
    <path id="Trazado_151510" data-name="Trazado 151510" d="M180.359,17.383a4.577,4.577,0,0,1-2.013,1.323,8.429,8.429,0,0,1-2.883.47,5.711,5.711,0,0,1-2.914-.725,4.836,4.836,0,0,1-1.934-2.1,7.408,7.408,0,0,1-.7-3.243v-.87a7.868,7.868,0,0,1,.646-3.318,4.779,4.779,0,0,1,1.863-2.145,6.135,6.135,0,0,1,6.412.343,4.639,4.639,0,0,1,1.521,3.16h-2.566a2.552,2.552,0,0,0-.778-1.608,2.484,2.484,0,0,0-1.657-.51,2.338,2.338,0,0,0-2.048,1.011,5.315,5.315,0,0,0-.712,3.006v.817a5.06,5.06,0,0,0,.765,3.041,2.618,2.618,0,0,0,2.241,1.028,2.925,2.925,0,0,0,2.118-.633V14.219h-2.4V12.276h5.036ZM187.839,19a2.821,2.821,0,0,1-.255-.853,3.073,3.073,0,0,1-2.4,1.028,3.376,3.376,0,0,1-2.316-.809,2.6,2.6,0,0,1-.918-2.039,2.687,2.687,0,0,1,1.121-2.32,5.529,5.529,0,0,1,3.239-.817h1.169v-.545a1.567,1.567,0,0,0-.338-1.055,1.331,1.331,0,0,0-1.068-.4,1.513,1.513,0,0,0-1.006.308,1.045,1.045,0,0,0-.365.844h-2.54a2.551,2.551,0,0,1,.51-1.529,3.37,3.37,0,0,1,1.441-1.1,5.253,5.253,0,0,1,2.092-.4,4.15,4.15,0,0,1,2.791.883,3.09,3.09,0,0,1,1.033,2.483V16.8a4.546,4.546,0,0,0,.378,2.048V19Zm-2.1-1.767a2.188,2.188,0,0,0,1.037-.25,1.645,1.645,0,0,0,.7-.672V14.676h-.949q-1.907,0-2.03,1.318l-.009.149a1.017,1.017,0,0,0,.334.782A1.3,1.3,0,0,0,185.738,17.233ZM194.659,19H192.11V5.5h2.549Zm4.772,0h-2.549V9.49h2.549Zm-2.7-11.971a1.251,1.251,0,0,1,.382-.94,1.648,1.648,0,0,1,2.079,0,1.244,1.244,0,0,1,.387.94,1.247,1.247,0,0,1-.391.949,1.629,1.629,0,0,1-2.065,0A1.247,1.247,0,0,1,196.733,7.029ZM204.2,19h-2.549V5.5H204.2Zm4.772,0h-2.549V5.5h2.549Zm6.469.176a4.668,4.668,0,0,1-3.406-1.283,4.561,4.561,0,0,1-1.314-3.419v-.246a5.745,5.745,0,0,1,.554-2.562,4.064,4.064,0,0,1,1.569-1.74,4.4,4.4,0,0,1,2.316-.611,3.947,3.947,0,0,1,3.072,1.23,5,5,0,0,1,1.121,3.489v1.037H213.3a2.36,2.36,0,0,0,.743,1.494,2.245,2.245,0,0,0,1.569.563,2.742,2.742,0,0,0,2.294-1.063l1.248,1.4a3.813,3.813,0,0,1-1.547,1.261A5.075,5.075,0,0,1,215.445,19.176Zm-.29-7.813a1.587,1.587,0,0,0-1.226.512,2.651,2.651,0,0,0-.6,1.466h3.533v-.2a1.891,1.891,0,0,0-.457-1.311A1.638,1.638,0,0,0,215.155,11.362Zm5.247,2.795a5.64,5.64,0,0,1,.545-2.522,3.989,3.989,0,0,1,1.569-1.714,4.577,4.577,0,0,1,2.377-.606,4.33,4.33,0,0,1,3.142,1.178,4.727,4.727,0,0,1,1.358,3.2l.018.65a4.97,4.97,0,0,1-1.222,3.511,4.735,4.735,0,0,1-6.561,0,5.058,5.058,0,0,1-1.226-3.586Zm2.54.18a3.555,3.555,0,0,0,.51,2.073,1.831,1.831,0,0,0,2.9.009,3.89,3.89,0,0,0,.519-2.267,3.519,3.519,0,0,0-.519-2.06,1.686,1.686,0,0,0-1.459-.731,1.658,1.658,0,0,0-1.441.726A3.955,3.955,0,0,0,222.942,14.338Z" transform="translate(-10669 -9073)" fill="#12263f"/>
    <g id="Grupo_91675" data-name="Grupo 91675" transform="translate(-10585.033 -9178)">
      <g id="Grupo_91675-2" data-name="Grupo 91675" transform="translate(0 0)" clip-path="url(#clip-path)">
        <path id="Trazado_146537" data-name="Trazado 146537" d="M74.706,85.487c-21.17,0-52.923,0-74.092.012-.5,0-.614-.113-.614-.613Q.021,42.749,0,.613C0,.112.113,0,.614,0,42.955.013,102.932.013,145.272,0c.5,0,.614.112.614.613q-.021,42.136,0,84.274c0,.5-.113.614-.614.613-21.17-.014-49.395-.012-70.566-.012m2.616-10.46.055-.063-.061.061c.168-.192.038-.373-.021-.556-.233-.715-.447-1.436-.706-2.141a.628.628,0,0,1,.277-.862,12.524,12.524,0,0,0,2.245-1.726c-.2-.2-.456-.142-.693-.144-.885-.007-1.772-.005-2.66-.007-.34-.978-.682-1.957-1.054-3.023-.375,1.08-.712,2.052-1.05,3.023-.642,0-1.287-.02-1.928.012-.474.025-.974-.153-1.422.138.28.447.771.641,1.16.955.482.387,1.243.663,1.4,1.146s-.306,1.149-.455,1.746c-.118.476-.49.9-.318,1.44l-.056-.067.051.069c.737-.7,1.625-1.2,2.416-1.83a.276.276,0,0,1,.4,0c.79.63,1.68,1.129,2.416,1.829m26.495-48.018c-.192-.206-.444-.148-.68-.15-.9-.007-1.794-.005-2.69-.007-.341-.984-.682-1.969-1.05-3.036-.358,1.049-.68,1.987-1,2.924a8.688,8.688,0,0,1-2.034.121c-.451.036-.925-.142-1.35.138a11.543,11.543,0,0,0,2.238,1.735.645.645,0,0,1,.263.87c-.3.854-.569,1.722-.9,2.739.882-.641,1.635-1.153,2.345-1.72a.606.606,0,0,1,.9.016c.708.558,1.455,1.068,2.331,1.7-.328-1-.575-1.85-.886-2.672a.7.7,0,0,1,.3-.974,13.277,13.277,0,0,0,2.208-1.689m-52.8-.269c-.322-.94-.645-1.88-1-2.926-.374,1.089-.71,2.063-1.044,3.038-.722,0-1.445-.016-2.167.012-.4.016-.833-.145-1.205.145A13.32,13.32,0,0,0,47.8,28.7a.7.7,0,0,1,.3.974c-.311.822-.557,1.668-.885,2.669.857-.62,1.589-1.113,2.276-1.66a.676.676,0,0,1,1.011-.016c.695.563,1.444,1.059,2.292,1.671-.323-.995-.573-1.841-.876-2.669a.7.7,0,0,1,.292-.972A10.583,10.583,0,0,0,54.4,27c-.244-.221-.544-.123-.822-.14a12.341,12.341,0,0,1-2.563-.118M79.206,12.8H77.189c-1.406,0-1.4,0-1.834-1.311-.2-.609-.407-1.216-.655-1.956-.3.919-.6,1.665-.781,2.437-.154.647-.434.912-1.132.847-.8-.075-1.618-.017-2.578-.017.87.634,1.588,1.193,2.346,1.692a.618.618,0,0,1,.266.864c-.3.857-.569,1.727-.9,2.734.86-.622,1.6-1.118,2.29-1.669a.638.638,0,0,1,.965-.019c.7.572,1.461,1.071,2.316,1.687-.329-1.011-.6-1.9-.913-2.768a.575.575,0,0,1,.254-.81c.757-.5,1.477-1.061,2.371-1.712M47.232,60.833c.9-.658,1.665-1.195,2.4-1.762a.521.521,0,0,1,.751,0c.735.564,1.494,1.1,2.412,1.764-.342-1.048-.6-1.911-.907-2.757a.619.619,0,0,1,.291-.858c.753-.5,1.468-1.054,2.329-1.68-1.082,0-2.012-.021-2.94.011a.562.562,0,0,1-.65-.484c-.268-.889-.571-1.768-.909-2.8-.344,1.044-.658,1.917-.913,2.807a.555.555,0,0,1-.654.477c-.928-.024-1.857-.008-2.931-.008.9.653,1.657,1.226,2.44,1.768a.467.467,0,0,1,.2.653c-.317.9-.586,1.806-.927,2.875m56.665-5.3c-1.012,0-1.879-.044-2.737.016-.563.04-.781-.176-.921-.681-.233-.839-.527-1.659-.841-2.623-.34,1.052-.641,1.933-.907,2.824a.561.561,0,0,1-.658.474c-.926-.031-1.855-.011-2.928-.011.879.641,1.616,1.211,2.39,1.727a.542.542,0,0,1,.245.757c-.306.866-.575,1.744-.918,2.8.884-.637,1.624-1.123,2.308-1.681a.64.64,0,0,1,.966.017c.7.553,1.436,1.052,2.284,1.664-.338-1.064-.6-1.978-.926-2.871a.465.465,0,0,1,.214-.65c.779-.542,1.538-1.112,2.429-1.764M63.241,21.889c-.305-.956-.531-1.809-.855-2.624a.747.747,0,0,1,.36-1.074c.725-.467,1.406-1,2.245-1.611-1.122,0-2.033-.022-2.943.011a.587.587,0,0,1-.695-.5c-.259-.889-.562-1.765-.891-2.782-.326,1-.631,1.878-.89,2.767a.585.585,0,0,1-.69.511c-.92-.035-1.84-.011-2.948-.011.886.645,1.6,1.194,2.349,1.7a.615.615,0,0,1,.288.868c-.318.847-.562,1.722-.885,2.736.9-.652,1.668-1.183,2.4-1.752a.506.506,0,0,1,.74,0c.756.58,1.538,1.125,2.411,1.759m22.918.008c.7-.508,1.278-.922,1.851-1.339.944-.685.942-.684,1.862-.019.576.417,1.156.829,1.862,1.336-.325-1.009-.567-1.86-.877-2.684a.646.646,0,0,1,.287-.926c.75-.491,1.458-1.048,2.332-1.686-1.113,0-2.04-.019-2.962.01a.548.548,0,0,1-.653-.466c-.263-.9-.578-1.794-.91-2.8-.325,1-.632,1.851-.874,2.726a.613.613,0,0,1-.728.542c-.915-.035-1.833-.011-2.922-.011.908.66,1.647,1.225,2.416,1.745a.554.554,0,0,1,.244.768c-.309.873-.584,1.759-.927,2.8M43.425,46.583c.859-.62,1.622-1.146,2.355-1.712a.577.577,0,0,1,.854-.015c.72.573,1.486,1.092,2.367,1.728-.31-.951-.539-1.757-.839-2.535a.82.82,0,0,1,.371-1.19c.72-.437,1.375-.981,2.192-1.578-1.058,0-1.926-.038-2.788.014a.726.726,0,0,1-.876-.631c-.235-.848-.533-1.678-.849-2.646-.324.983-.638,1.793-.847,2.629-.136.545-.394.676-.918.647-.855-.047-1.715-.012-2.747-.012.885.646,1.614,1.215,2.384,1.721a.582.582,0,0,1,.246.822c-.307.871-.578,1.756-.9,2.76m64.289-5.3c-1.133,0-2.069-.02-3,.01a.516.516,0,0,1-.6-.441c-.274-.907-.576-1.805-.911-2.847-.32.989-.62,1.844-.869,2.712-.122.424-.3.607-.777.58-.9-.05-1.8-.014-2.869-.014.878.64,1.594,1.191,2.342,1.7a.617.617,0,0,1,.281.869c-.317.847-.563,1.723-.884,2.732.9-.65,1.662-1.183,2.4-1.751a.513.513,0,0,1,.745,0c.757.579,1.538,1.127,2.416,1.764-.323-1-.579-1.886-.9-2.75a.615.615,0,0,1,.293-.862c.748-.5,1.464-1.056,2.337-1.693M60.463,62.7c-.333,1.016-.648,1.91-.914,2.818a.549.549,0,0,1-.649.473c-.921-.032-1.845-.011-2.941-.011.891.649,1.627,1.206,2.386,1.729a.544.544,0,0,1,.241.765c-.319.873-.576,1.77-.9,2.8.852-.621,1.585-1.123,2.28-1.673a.646.646,0,0,1,.967-.016c.7.572,1.466,1.076,2.315,1.686-.326-1.007-.581-1.878-.9-2.726a.611.611,0,0,1,.267-.869c.759-.505,1.48-1.067,2.338-1.694-1.109,0-2.043-.019-2.975.01a.518.518,0,0,1-.6-.437c-.278-.912-.579-1.815-.914-2.853m31.274,8.574c-.337-1.049-.593-1.942-.915-2.809a.543.543,0,0,1,.256-.761c.756-.523,1.49-1.078,2.376-1.723-1.08,0-1.984-.029-2.884.012a.623.623,0,0,1-.734-.547c-.258-.882-.559-1.75-.883-2.746-.328,1.007-.64,1.861-.877,2.736-.125.457-.339.575-.789.556-.892-.038-1.786-.011-2.836-.011.862.63,1.56,1.176,2.3,1.661a.645.645,0,0,1,.31.912c-.319.852-.57,1.73-.886,2.718.871-.63,1.64-1.158,2.375-1.73a.541.541,0,0,1,.8-.011c.735.571,1.5,1.1,2.39,1.743" transform="translate(0 0)" fill="#003398"/>
        <path id="Trazado_146538" data-name="Trazado 146538" d="M88.617,14.078c-.894.651-1.615,1.208-2.371,1.712a.575.575,0,0,0-.254.81c.315.87.583,1.758.912,2.768-.854-.615-1.614-1.115-2.316-1.687a.639.639,0,0,0-.966.019c-.693.55-1.429,1.047-2.288,1.668.327-1.007.593-1.877.9-2.734a.617.617,0,0,0-.265-.863c-.757-.5-1.475-1.059-2.346-1.693.961,0,1.776-.057,2.579.018.7.065.978-.2,1.132-.847.185-.772.48-1.518.78-2.437.249.741.456,1.347.656,1.956.429,1.31.427,1.311,1.833,1.311Z" transform="translate(-9.41 -1.277)" fill="#facb03"/>
        <path id="Trazado_146539" data-name="Trazado 146539" d="M53.332,67.838c.34-1.069.609-1.98.927-2.875a.467.467,0,0,0-.2-.653c-.783-.541-1.544-1.115-2.44-1.768,1.074,0,2-.015,2.932.008a.554.554,0,0,0,.653-.477c.255-.89.569-1.763.913-2.807.339,1.034.641,1.914.909,2.8a.561.561,0,0,0,.65.484c.928-.032,1.858-.01,2.94-.01-.86.625-1.576,1.181-2.33,1.68a.619.619,0,0,0-.29.858c.305.846.565,1.708.907,2.757-.918-.668-1.677-1.2-2.411-1.764a.522.522,0,0,0-.752,0c-.738.567-1.5,1.1-2.4,1.762" transform="translate(-6.1 -7.004)" fill="#facb03"/>
        <path id="Trazado_146540" data-name="Trazado 146540" d="M116.618,62.541c-.892.652-1.652,1.22-2.429,1.764a.465.465,0,0,0-.215.649c.321.894.587,1.808.926,2.872-.847-.613-1.587-1.111-2.284-1.665a.64.64,0,0,0-.966-.016c-.683.557-1.423,1.044-2.307,1.68.343-1.056.612-1.935.917-2.8a.543.543,0,0,0-.244-.757c-.773-.517-1.511-1.086-2.39-1.727,1.073,0,2-.02,2.928.01a.561.561,0,0,0,.659-.474c.265-.892.566-1.772.907-2.824.313.963.608,1.784.84,2.623.14.5.358.72.921.681.859-.061,1.725-.016,2.738-.016" transform="translate(-12.72 -7.003)" fill="#facb03"/>
        <path id="Trazado_146541" data-name="Trazado 146541" d="M60.512,30.191a10.578,10.578,0,0,1-2.184,1.7.7.7,0,0,0-.293.972c.3.828.553,1.675.877,2.669-.848-.612-1.6-1.108-2.293-1.672a.675.675,0,0,0-1.009.017c-.689.548-1.42,1.041-2.278,1.66.328-1,.575-1.847.886-2.668a.7.7,0,0,0-.3-.974A13.325,13.325,0,0,1,51.707,30.2c.951,0,1.9.011,2.855,0,.178,0,.413.108.516-.16l1.045-3.038,1,2.926c.025.332.274.278.487.277.966,0,1.932-.012,2.9-.019" transform="translate(-6.111 -3.192)" fill="#f7c904"/>
        <path id="Trazado_146542" data-name="Trazado 146542" d="M111.131,29.933c.321-.937.641-1.875,1-2.925.369,1.068.709,2.052,1.049,3.036.1.269.338.16.515.161.952.008,1.9,0,2.856,0a13.253,13.253,0,0,1-2.209,1.69.7.7,0,0,0-.3.974c.311.822.558,1.668.887,2.672-.877-.636-1.623-1.146-2.331-1.7a.608.608,0,0,0-.9-.016c-.71.566-1.463,1.078-2.345,1.72.331-1.017.6-1.885.9-2.74a.643.643,0,0,0-.264-.869,11.6,11.6,0,0,1-2.237-1.735c.966.006,1.931.014,2.9.019.212,0,.461.056.487-.277" transform="translate(-12.735 -3.192)" fill="#f7c904"/>
        <path id="Trazado_146543" data-name="Trazado 146543" d="M83.077,78.513c.338-.972.675-1.944,1.05-3.024l1.055,3.024c.072.253.285.16.44.16.97,0,1.941-.005,2.911-.011a12.491,12.491,0,0,1-2.244,1.727.627.627,0,0,0-.277.861c.259.7.474,1.427.706,2.141.06.183.19.365.021.556l.005,0c-.736-.7-1.625-1.2-2.415-1.829a.277.277,0,0,0-.4,0c-.79.63-1.679,1.129-2.415,1.83l.005,0c-.173-.541.2-.963.318-1.439.149-.6.613-1.267.455-1.746s-.922-.76-1.4-1.147c-.391-.314-.881-.508-1.161-.955.97.005,1.94.015,2.91.011.156,0,.369.093.441-.16" transform="translate(-9.423 -8.922)" fill="#f7c904"/>
        <path id="Trazado_146544" data-name="Trazado 146544" d="M70.738,23.673c-.874-.634-1.656-1.179-2.411-1.759a.507.507,0,0,0-.741,0c-.737.569-1.5,1.1-2.4,1.752.323-1.014.566-1.889.884-2.736a.616.616,0,0,0-.287-.868c-.747-.5-1.464-1.053-2.35-1.7,1.108,0,2.029-.025,2.949.011a.586.586,0,0,0,.69-.511c.257-.889.563-1.764.889-2.767.329,1.017.631,1.893.89,2.782a.587.587,0,0,0,.7.5c.911-.033,1.823-.01,2.944-.01-.839.608-1.521,1.143-2.246,1.61a.748.748,0,0,0-.359,1.074c.324.815.55,1.668.855,2.624" transform="translate(-7.497 -1.784)" fill="#f9ca03"/>
        <path id="Trazado_146545" data-name="Trazado 146545" d="M97.475,23.683c.343-1.045.617-1.93.927-2.8a.555.555,0,0,0-.243-.768c-.77-.52-1.51-1.085-2.418-1.744,1.09,0,2.008-.025,2.923.011a.611.611,0,0,0,.727-.542c.243-.874.55-1.73.875-2.726.332,1.008.647,1.9.91,2.8a.547.547,0,0,0,.653.466c.923-.027,1.849-.009,2.963-.009-.874.638-1.582,1.194-2.331,1.685a.647.647,0,0,0-.287.926c.31.825.553,1.675.878,2.685-.708-.508-1.287-.92-1.863-1.336-.92-.667-.918-.668-1.861.018-.573.417-1.148.831-1.851,1.339" transform="translate(-11.316 -1.785)" fill="#f9ca03"/>
        <path id="Trazado_146546" data-name="Trazado 146546" d="M49.014,51.679c.326-1,.6-1.889.9-2.76a.583.583,0,0,0-.246-.822c-.769-.506-1.5-1.075-2.384-1.721,1.032,0,1.891-.034,2.747.012.524.029.781-.1.918-.647.209-.836.524-1.645.847-2.629.316.968.614,1.8.85,2.645a.725.725,0,0,0,.875.632c.862-.052,1.73-.014,2.788-.014-.817.6-1.473,1.141-2.192,1.578a.82.82,0,0,0-.371,1.19c.3.779.529,1.585.839,2.535-.88-.638-1.645-1.155-2.368-1.728a.576.576,0,0,0-.853.015c-.733.566-1.5,1.092-2.355,1.712" transform="translate(-5.589 -5.095)" fill="#facb03"/>
        <path id="Trazado_146547" data-name="Trazado 146547" d="M120.941,46.374c-.873.638-1.588,1.19-2.337,1.693a.616.616,0,0,0-.293.863c.324.863.58,1.752.9,2.75-.878-.638-1.66-1.184-2.416-1.765a.513.513,0,0,0-.745,0c-.738.569-1.5,1.1-2.4,1.751.322-1.009.567-1.884.884-2.732a.616.616,0,0,0-.28-.869c-.749-.5-1.465-1.056-2.342-1.7,1.071,0,1.973-.035,2.869.014.481.027.655-.156.778-.58.25-.869.548-1.723.869-2.712.336,1.042.637,1.941.911,2.847a.517.517,0,0,0,.6.442c.933-.031,1.868-.011,3-.011" transform="translate(-13.227 -5.093)" fill="#facb03"/>
        <path id="Trazado_146548" data-name="Trazado 146548" d="M67.964,71.107c.334,1.038.637,1.941.914,2.852a.518.518,0,0,0,.6.438c.932-.029,1.866-.01,2.975-.01-.858.627-1.578,1.189-2.338,1.694a.612.612,0,0,0-.268.869c.316.847.569,1.718.9,2.726-.848-.61-1.609-1.114-2.315-1.686a.646.646,0,0,0-.967.016c-.7.548-1.428,1.052-2.279,1.673.325-1.027.581-1.923.9-2.8a.545.545,0,0,0-.24-.766c-.76-.522-1.5-1.079-2.386-1.728,1.1,0,2.018-.021,2.94.011a.549.549,0,0,0,.649-.473c.267-.908.582-1.8.915-2.818" transform="translate(-7.5 -8.404)" fill="#facb03"/>
        <path id="Trazado_146549" data-name="Trazado 146549" d="M103.056,79.68c-.888-.643-1.655-1.173-2.39-1.743a.541.541,0,0,0-.8.011c-.735.572-1.5,1.1-2.375,1.73.317-.988.567-1.866.886-2.718a.645.645,0,0,0-.31-.912c-.739-.485-1.437-1.032-2.3-1.661,1.05,0,1.944-.026,2.836.011.45.019.664-.1.789-.556.236-.875.548-1.729.877-2.736.324,1,.624,1.864.883,2.746a.623.623,0,0,0,.734.547c.9-.041,1.8-.012,2.884-.012-.885.645-1.62,1.2-2.376,1.723a.543.543,0,0,0-.256.761c.323.868.578,1.76.915,2.809" transform="translate(-11.319 -8.404)" fill="#facb03"/>
        <path id="Trazado_146550" data-name="Trazado 146550" d="M61.238,30.583c-.966.006-1.932.014-2.9.019-.213,0-.462.056-.487-.277a12.333,12.333,0,0,0,2.563.118c.278.018.578-.082.822.14" transform="translate(-6.838 -3.584)" fill="#0020ac"/>
        <path id="Trazado_146551" data-name="Trazado 146551" d="M111.131,30.325c-.026.333-.275.278-.487.277-.966,0-1.932-.012-2.9-.019.426-.28.9-.1,1.351-.138a8.686,8.686,0,0,0,2.033-.121" transform="translate(-12.735 -3.584)" fill="#0020ac"/>
        <path id="Trazado_146552" data-name="Trazado 146552" d="M55.078,30.449c-.1.268-.338.16-.516.16-.951.008-1.9,0-2.855,0,.371-.288.8-.129,1.205-.145.72-.028,1.444-.011,2.166-.012" transform="translate(-6.111 -3.596)" fill="#0020ac"/>
        <path id="Trazado_146553" data-name="Trazado 146553" d="M117.281,30.608c-.952,0-1.9.011-2.856,0-.178,0-.413.108-.516-.16.9,0,1.794,0,2.692.007.235,0,.488-.056.68.15" transform="translate(-13.463 -3.599)" fill="#0020ac"/>
        <path id="Trazado_146554" data-name="Trazado 146554" d="M83.077,78.915c-.072.253-.285.16-.441.16-.97,0-1.94-.005-2.91-.011.45-.292.949-.114,1.423-.138.641-.034,1.285-.011,1.928-.012" transform="translate(-9.423 -9.324)" fill="#0020ac"/>
        <path id="Trazado_146555" data-name="Trazado 146555" d="M89.264,79.068c-.97.005-1.94.014-2.91.011-.156,0-.369.093-.441-.16.886,0,1.772,0,2.659.006.238,0,.494-.058.692.144" transform="translate(-10.154 -9.327)" fill="#0020ac"/>
        <path id="Trazado_146556" data-name="Trazado 146556" d="M81.745,85.077l-.051-.069.056.067-.005,0" transform="translate(-9.655 -10.047)" fill="#f7c904"/>
        <path id="Trazado_146557" data-name="Trazado 146557" d="M87.679,85.073l.061-.061-.056.063-.005,0" transform="translate(-10.363 -10.047)" fill="#f7c904"/>
      </g>
    </g>
  </g>
</svg>
